<?xml version="1.0" encoding="UTF-8"?>
<svg id="Layer_1" data-name="Layer 1" xmlns="http://www.w3.org/2000/svg" viewBox="0 0 131.77 40.42">
  <defs>
    <style>
      .cls-1 {
        fill: #dcbe88;
        stroke-width: .03px;
      }

      .cls-1, .cls-2, .cls-3, .cls-4 {
        stroke: #565757;
        stroke-miterlimit: 10;
      }

      .cls-5 {
        fill: #e06236;
      }

      .cls-6 {
        letter-spacing: -.01em;
      }

      .cls-7 {
        fill: #4a668d;
      }

      .cls-8 {
        fill: #f4f5f7;
      }

      .cls-9 {
        fill: #e56335;
      }

      .cls-9, .cls-10, .cls-11, .cls-12, .cls-3 {
        font-family: MagistralCond-Medium, 'Magistral Cond Medium';
        font-size: 24.53px;
        font-weight: 500;
      }

      .cls-10 {
        fill: #2b4d7d;
      }

      .cls-13 {
        fill: #d7a64b;
      }

      .cls-14 {
        fill: #d28a57;
      }

      .cls-11 {
        fill: #cd2435;
      }

      .cls-15 {
        fill: #c72138;
      }

      .cls-16 {
        fill: #304c7a;
      }

      .cls-17 {
        fill: #d1684c;
      }

      .cls-12 {
        fill: #d4ac63;
      }

      .cls-18 {
        fill: #b75e47;
      }

      .cls-19 {
        fill: #d94435;
      }

      .cls-20 {
        fill: #59536b;
      }

      .cls-21 {
        fill: #cf4640;
      }

      .cls-22 {
        fill: #df5335;
      }

      .cls-2 {
        fill: #e4d1ad;
        stroke-width: .05px;
      }

      .cls-3 {
        fill: #f4f5f7;
        stroke-width: .1px;
      }

      .cls-23 {
        fill: #21314f;
      }

      .cls-24 {
        fill: #885859;
      }

      .cls-25 {
        fill: #d33435;
      }

      .cls-4 {
        fill: #ece3d2;
        stroke-width: .08px;
      }
    </style>
  </defs>
  <g>
    <circle class="cls-23" cx="16.54" cy="17.67" r="16.52"/>
    <path class="cls-16" d="M29.36,13.44c-1.46-2.01-3.72-5.97-2.51-8.66-.17-.14-.36-.28-.54-.41,0,0,0,0,0,0-.09-.06-.18-.13-.28-.19,0,0,0,0-.02,0-.1-.06-.19-.13-.29-.2-.18-.13-.37-.24-.56-.36,0,0,0,0-.02,0-.09-.06-.18-.12-.28-.17,0,0,0,0-.02,0-.19-.12-.39-.22-.59-.32,0,0,0,0,0,0-.1-.05-.19-.1-.29-.15,0,0-.02,0-.03-.02-.1-.05-.19-.1-.29-.14,0,0-.02,0-.03,0-.2-.09-.39-.18-.61-.28,0,0-.02,0-.03,0-.1-.05-.2-.08-.3-.13,0,0-.03,0-.04-.02-.1-.05-.2-.08-.3-.12,0,0-.02,0-.02,0-.11-.05-.21-.07-.31-.12h0c-1.66-.61-3.51-.94-5.44-.94s-3.78.33-5.51.94h0c-.11.04-.21.07-.31.12,0,0-.02,0-.02,0-.1.05-.2.07-.3.12,0,0-.03,0-.04.02-.1.05-.2.08-.3.13,0,0-.02,0-.03,0-.2.08-.4.17-.61.28,0,0-.02,0-.03,0-.1.05-.19.09-.29.14,0,0-.02,0-.03.02-.1.05-.19.1-.29.15,0,0,0,0,0,0-.2.11-.39.22-.59.32,0,0,0,0-.02,0-.09.06-.19.11-.28.17,0,0,0,0-.02,0-.14.09-.28.18-.42.28s-.28.19-.41.28c0,0,0,0-.02,0-.09.06-.18.13-.28.19,0,0,0,0,0,0-.18.13-.37.28-.54.41,1.2,2.68-1.06,6.65-2.51,8.66-1.16,1.6-2.56,3.13-3.68,4.8,0,.35.04.7.06,1.05H.06c.04.34.07.69.13,1.02H.19c.03.17.06.34.09.5.04.17.06.33.1.5v.02c.03.11.05.22.07.32H.46c.05.22.11.43.17.64,0,0,0,.02,0,.02.04.11.06.21.09.31h0c.06.21.13.41.21.62,0,0,0,.02,0,.03.04.1.07.2.12.3h0c2.41,6.21,8.42,10.62,15.47,10.62s13.06-4.4,15.43-10.62h0c.05-.1.07-.2.12-.3,0,0,0-.02,0-.03.07-.21.14-.41.21-.62h0c.04-.11.06-.21.09-.31,0,0,0-.02,0-.02.05-.16.09-.32.13-.48.05-.16.08-.32.12-.49v-.02c.04-.17.07-.33.1-.5.04-.17.06-.33.09-.5h0c.03-.18.06-.37.07-.55.02-.16.05-.32.06-.49h0c.04-.35.06-.7.06-1.05-1.13-1.67-2.52-3.2-3.69-4.79Z"/>
    <path class="cls-7" d="M27.46,16.16c-3.89-3.55-7.01-8.75-5.42-14.07-.1-.04-.2-.06-.3-.1-.02,0-.03,0-.05-.02-.1-.04-.2-.06-.3-.09,0,0-.03,0-.04,0-.21-.06-.41-.13-.62-.17-.02,0-.03,0-.05,0-.1-.03-.2-.05-.3-.07-.02,0-.03,0-.05,0-.11-.03-.21-.05-.31-.07h0c-.11-.03-.21-.05-.31-.06,0,0-.03,0-.04,0-.1-.02-.21-.05-.3-.06-.02,0-.04,0-.05,0-.1-.02-.21-.04-.3-.05,0,0-.02,0-.04,0-.1-.02-.2-.04-.3-.05,0,0-.03,0-.04,0-.1-.02-.21-.03-.3-.04-.02,0-.05,0-.06,0-.1,0-.21-.03-.3-.04h-.05c-.1,0-.21-.02-.3-.03h-.03c-.11,0-.21,0-.31-.02h-.06c-.1,0-.21,0-.31,0h-.75c-.11,0-.21,0-.31,0h-.06c-.11,0-.22,0-.31.02h-.03c-.1,0-.21.02-.3.03h-.05c-.1,0-.21.02-.3.04-.02,0-.05,0-.06,0-.11,0-.21.03-.31.04,0,0-.03,0-.04,0-.1.02-.21.03-.3.05,0,0-.02,0-.04,0-.11.02-.21.04-.3.05-.02,0-.04,0-.05,0-.1.02-.21.04-.3.06,0,0-.03,0-.04,0-.11.02-.21.05-.31.06h0c-.11.03-.21.05-.31.07-.02,0-.03,0-.05,0-.1.03-.2.05-.3.07-.02,0-.03,0-.05,0-.21.06-.41.12-.62.17,0,0-.03,0-.04,0-.1.04-.2.06-.3.09-.02,0-.03,0-.05.02-.1.04-.2.06-.3.1,1.6,5.32-1.52,10.52-5.42,14.07-2.95,2.7-4.55,4.84-4.51,7.4.05.13.1.26.16.39h0c.05.14.11.26.16.39,0,0,0,0,0,0,.06.13.11.25.17.38,0,0,0,0,0,0,.06.13.12.25.18.37h0c.05.09.09.18.14.27.02.03.03.05.05.07.04.06.06.13.11.19.02.03.04.06.05.08.04.06.06.13.1.18.02.03.04.06.05.08.04.06.06.12.11.17.02.03.04.05.05.08.04.06.07.13.12.18.02.03.04.05.05.07.05.06.08.13.13.19.02.02.03.05.05.06.05.07.09.14.14.21,0,0,.02.03.03.04.29.42.6.83.93,1.23h0c.06.07.13.16.2.23h0c.06.08.13.16.19.23h0c.06.08.13.16.2.23h0c3.01,3.24,7.31,5.26,12.08,5.26s9.07-2.03,12.08-5.26h0c.06-.08.13-.16.2-.23h0c.06-.08.13-.16.19-.23h0c.06-.08.13-.16.19-.24h0c.33-.39.64-.81.93-1.23,0,0,.02-.03.03-.04.05-.06.09-.14.14-.21.02-.02.03-.05.05-.06.05-.06.08-.13.13-.19.02-.03.04-.05.05-.07.05-.06.07-.13.12-.18.02-.03.04-.05.05-.08.04-.06.07-.12.11-.18.02-.03.04-.06.05-.08.04-.06.06-.12.1-.18.02-.03.04-.06.05-.08.04-.06.06-.13.11-.19.02-.03.03-.05.05-.07.05-.09.09-.17.14-.27h0c.06-.13.13-.25.18-.38h0c.06-.14.12-.26.17-.39,0,0,0,0,0,0,.06-.13.11-.25.16-.39h0c.05-.14.11-.27.16-.4,0-2.51-1.59-4.68-4.54-7.37Z"/>
    <path class="cls-13" d="M28.38,29.1c-1.53-1.53-3.33-2.74-5.32-3.59-2.06-.87-4.26-1.32-6.51-1.32-1.92,0-3.8.32-5.6.95-1.73.61-3.35,1.5-4.79,2.65-.52.41-1.02.86-1.5,1.34.17.17.34.35.51.51.13.13.28.26.41.39h0c2.92,2.58,6.75,4.15,10.96,4.15,2.46,0,4.79-.54,6.88-1.5,1.49-.68,2.85-1.58,4.06-2.65.14-.13.28-.25.41-.39.17-.17.35-.34.51-.51,0,0-.02-.02-.04-.04Z"/>
    <path class="cls-5" d="M16.54,25.49c-3.62,0-6.95,1.25-9.58,3.33-.48.39-.93.79-1.36,1.21h0c2.91,2.58,6.74,4.15,10.95,4.15,2.46,0,4.79-.54,6.88-1.5,1.49-.68,2.85-1.58,4.06-2.65-2.81-2.81-6.68-4.54-10.96-4.54Z"/>
    <path class="cls-15" d="M23.43,32.69c-2.2-3.25-5.92-5.38-10.13-5.38-2.86,0-5.5.99-7.58,2.63-.05.04-.07.06-.12.09,2.91,2.58,6.74,4.15,10.95,4.15,2.46,0,4.79-.54,6.88-1.5Z"/>
    <path class="cls-8" d="M18.66,8.9l-.31-.1c-.74-.24-1.34-.83-1.57-1.57l-.1-.31c-.02-.06-.07-.1-.13-.1s-.12.05-.13.1l-.1.31c-.24.74-.83,1.34-1.57,1.57l-.31.1c-.06.02-.1.07-.1.13s.05.12.1.13l.31.1c.3.09.57.25.83.45.36.3.61.68.75,1.12l.1.31c.02.06.07.1.13.1h0c.06,0,.12-.05.13-.1l.1-.31c.14-.44.4-.83.76-1.13.24-.2.51-.35.82-.44l.31-.1c.06-.02.1-.07.1-.13-.02-.06-.06-.11-.12-.13Z"/>
    <path class="cls-8" d="M18.14,16.76l-.24-.07c-.56-.17-1-.61-1.17-1.17l-.07-.24s-.05-.07-.1-.07c-.05,0-.08.04-.1.07l-.07.24c-.17.56-.61,1-1.17,1.17l-.24.07s-.07.05-.07.1.04.08.07.1l.24.07c.22.07.43.18.61.34.27.22.46.51.57.83l.07.24s.05.07.1.07h0s.08-.04.1-.07l.07-.24c.11-.33.3-.62.57-.84.18-.15.39-.27.61-.33l.24-.07s.07-.05.07-.1c-.02-.06-.05-.1-.08-.1Z"/>
    <g>
      <path class="cls-8" d="M8.74,21.2l-.17-.06c-.4-.13-.73-.46-.86-.86l-.06-.17s-.05-.05-.07-.05c-.04,0-.06.03-.07.05l-.06.17c-.13.4-.46.73-.86.86l-.17.06s-.05.05-.05.07c0,.04.03.06.05.07l.17.06c.17.05.31.13.45.25.19.17.34.38.41.61l.06.17s.05.05.07.05h0s.06-.03.07-.05l.06-.17c.07-.24.22-.46.41-.62.13-.11.28-.19.45-.24l.17-.06s.05-.05.05-.07c0-.04-.03-.06-.05-.07Z"/>
      <path class="cls-8" d="M26.67,21.2l-.17-.06c-.4-.13-.73-.46-.86-.86l-.06-.17s-.05-.05-.07-.05c-.04,0-.06.03-.07.05l-.06.17c-.13.4-.46.73-.86.86l-.17.06s-.05.05-.05.07c0,.04.03.06.05.07l.17.06c.17.05.31.13.45.25.19.17.34.38.41.61l.06.17s.05.05.07.05h0s.06-.03.07-.05l.06-.17c.07-.24.22-.46.41-.62.13-.11.28-.19.45-.24l.17-.06s.05-.05.05-.07c.02-.04,0-.06-.05-.07Z"/>
    </g>
    <g>
      <path class="cls-8" d="M12.22,14.56l-.11-.04c-.26-.08-.47-.29-.55-.55l-.04-.11s-.03-.04-.05-.04-.05.02-.05.04l-.04.11c-.08.26-.29.47-.55.55l-.11.04s-.04.03-.04.05.02.05.04.05l.11.04c.11.04.2.08.29.16.13.1.22.24.27.39l.04.11s.03.04.05.04h0s.05-.02.05-.04l.04-.11c.05-.16.14-.29.27-.39.08-.06.18-.13.28-.16l.11-.04s.04-.03.04-.05c-.02-.02-.03-.04-.05-.05Z"/>
      <path class="cls-8" d="M22.35,14.56l-.11-.04c-.26-.08-.47-.29-.55-.55l-.04-.11s-.03-.04-.05-.04-.05.02-.05.04l-.04.11c-.08.26-.29.47-.55.55l-.11.04s-.04.03-.04.05.02.05.04.05l.11.04c.11.04.2.08.29.16.13.1.22.24.27.39l.04.11s.03.04.05.04h0s.05-.02.05-.04l.04-.11c.05-.16.14-.29.27-.39.08-.06.18-.13.28-.16l.11-.04s.04-.03.04-.05c0-.02-.03-.04-.05-.05Z"/>
    </g>
    <g>
      <path class="cls-8" d="M14.08,21.23l-.11-.04c-.26-.08-.47-.29-.55-.55l-.04-.11s-.03-.04-.05-.04c-.03,0-.05.02-.05.04l-.04.11c-.08.26-.29.47-.55.55l-.11.04s-.04.03-.04.05c0,.03.02.05.04.05l.11.04c.11.04.2.08.29.16.13.1.22.24.27.39l.04.11s.03.04.05.04h0s.05-.02.05-.04l.04-.11c.05-.16.14-.29.27-.39.08-.06.18-.13.28-.16l.11-.04s.04-.03.04-.05c0-.02-.03-.04-.05-.05Z"/>
      <path class="cls-8" d="M20.49,21.23l-.11-.04c-.26-.08-.47-.29-.55-.55l-.04-.11s-.03-.04-.05-.04-.05.02-.05.04l-.04.11c-.08.26-.29.47-.55.55l-.11.04s-.04.03-.04.05c0,.03.02.05.04.05l.11.04c.11.04.2.08.29.16.13.1.22.24.27.39l.04.11s.03.04.05.04h0s.05-.02.05-.04l.04-.11c.05-.16.14-.29.27-.39.08-.06.18-.13.28-.16l.11-.04s.04-.03.04-.05c-.02-.02-.04-.04-.05-.05Z"/>
    </g>
  </g>
  <g>
    <text class="cls-10" transform="translate(36.3 33.33)"><tspan x="0" y="0">ME</tspan><tspan class="cls-6" x="34.41" y="0">S</tspan><tspan x="47.37" y="0">SIER</tspan></text>
    <g>
      <path class="cls-20" d="M49.7,30.71c-.37,1.59-1.23,2.06-2.7,2.06s-2.33-.47-2.7-2.06l-2.67-11.46c-.1-.44-.25-.56-.42-.56-.27,0-.27.44-.27.52l.07,13.37h-3.24v-15.11c0-1.57,1.06-2.26,2.77-2.26,1.96,0,2.92.74,3.26,2.21l2.72,11.46c.1.39.29.64.47.64s.37-.25.47-.64l2.72-11.46c.34-1.47,1.3-2.21,3.26-2.21,1.72,0,2.77.69,2.77,2.26v15.11h-3.24l.1-13.37c0-.49-.2-.52-.29-.52-.17,0-.32.15-.42.56l-2.67,11.46Z"/>
      <path class="cls-20" d="M69.98,32.58h-8.32c-1.47,0-2.5-.61-2.5-2.58v-12.02c0-1.96,1.03-2.58,2.5-2.58h8.22v2.58h-6.26c-.98,0-1.23.25-1.23,1.23v3.31h7.24v2.58h-7.24v3.68c0,.98.25,1.23,1.23,1.23h6.35v2.58Z"/>
      <path class="cls-20" d="M71.67,30h6.55c1.55,0,1.62-1.03,1.62-1.62,0-.66-.32-1.42-1.67-2.18l-3.8-2.13c-2.04-1.13-2.92-2.4-2.92-4.76s1.2-3.9,3.93-3.9h7.17v2.58h-6.31c-.81,0-1.45.25-1.45,1.47,0,.76.27,1.45,1.5,2.18l3.31,1.99c2.21,1.3,3.58,2.09,3.58,4.78,0,2.53-1.03,4.17-3.68,4.17h-7.83v-2.58Z"/>
      <path class="cls-20" d="M84.63,30h6.55c1.55,0,1.62-1.03,1.62-1.62,0-.66-.32-1.42-1.67-2.18l-3.8-2.13c-2.04-1.13-2.92-2.4-2.92-4.76s1.2-3.9,3.93-3.9h7.17v2.58h-6.31c-.81,0-1.45.25-1.45,1.47,0,.76.27,1.45,1.5,2.18l3.31,1.99c2.21,1.3,3.58,2.09,3.58,4.78,0,2.53-1.03,4.17-3.68,4.17h-7.83v-2.58Z"/>
      <rect class="cls-20" x="98.34" y="15.4" width="3.24" height="17.18"/>
      <path class="cls-20" d="M115.34,32.58h-8.32c-1.47,0-2.5-.61-2.5-2.58v-12.02c0-1.96,1.03-2.58,2.5-2.58h8.22v2.58h-6.26c-.98,0-1.23.25-1.23,1.23v3.31h7.24v2.58h-7.24v3.68c0,.98.25,1.23,1.23,1.23h6.35v2.58Z"/>
      <path class="cls-20" d="M117.54,32.58v-14.6c0-1.96,1.03-2.58,2.5-2.58h6.21c3.19,0,4.29,1.99,4.29,5.42s-1.1,5.74-3.73,5.74h-.25v.12l4.32,5.89h-3.93l-3.83-5.57c-.32-.47-.56-.96-.56-1.45v-.39c0-.69.49-1.18,1.45-1.18h1.13c1.79,0,2.06-1.2,2.06-3.17s-.37-2.85-2.43-2.85h-2.77c-.98,0-1.23.25-1.23,1.23v13.37h-3.24Z"/>
    </g>
    <g>
      <path class="cls-24" d="M49.7,29.96c-.37,1.59-1.23,2.06-2.7,2.06s-2.33-.47-2.7-2.06l-2.67-11.46c-.1-.44-.25-.56-.42-.56-.27,0-.27.44-.27.52l.07,13.37h-3.24v-15.11c0-1.57,1.06-2.26,2.77-2.26,1.96,0,2.92.74,3.26,2.21l2.72,11.46c.1.39.29.64.47.64s.37-.25.47-.64l2.72-11.46c.34-1.47,1.3-2.21,3.26-2.21,1.72,0,2.77.69,2.77,2.26v15.11h-3.24l.1-13.37c0-.49-.2-.52-.29-.52-.17,0-.32.15-.42.56l-2.67,11.46Z"/>
      <path class="cls-24" d="M69.98,31.83h-8.32c-1.47,0-2.5-.61-2.5-2.58v-12.02c0-1.96,1.03-2.58,2.5-2.58h8.22v2.58h-6.26c-.98,0-1.23.25-1.23,1.23v3.31h7.24v2.58h-7.24v3.68c0,.98.25,1.23,1.23,1.23h6.35v2.58Z"/>
      <path class="cls-24" d="M71.67,29.25h6.55c1.55,0,1.62-1.03,1.62-1.62,0-.66-.32-1.42-1.67-2.18l-3.8-2.13c-2.04-1.13-2.92-2.4-2.92-4.76s1.2-3.9,3.93-3.9h7.17v2.58h-6.31c-.81,0-1.45.25-1.45,1.47,0,.76.27,1.45,1.5,2.18l3.31,1.99c2.21,1.3,3.58,2.09,3.58,4.78,0,2.53-1.03,4.17-3.68,4.17h-7.83v-2.58Z"/>
      <path class="cls-24" d="M84.63,29.25h6.55c1.55,0,1.62-1.03,1.62-1.62,0-.66-.32-1.42-1.67-2.18l-3.8-2.13c-2.04-1.13-2.92-2.4-2.92-4.76s1.2-3.9,3.93-3.9h7.17v2.58h-6.31c-.81,0-1.45.25-1.45,1.47,0,.76.27,1.45,1.5,2.18l3.31,1.99c2.21,1.3,3.58,2.09,3.58,4.78,0,2.53-1.03,4.17-3.68,4.17h-7.83v-2.58Z"/>
      <rect class="cls-24" x="98.34" y="14.65" width="3.24" height="17.18"/>
      <path class="cls-24" d="M115.34,31.83h-8.32c-1.47,0-2.5-.61-2.5-2.58v-12.02c0-1.96,1.03-2.58,2.5-2.58h8.22v2.58h-6.26c-.98,0-1.23.25-1.23,1.23v3.31h7.24v2.58h-7.24v3.68c0,.98.25,1.23,1.23,1.23h6.35v2.58Z"/>
      <path class="cls-24" d="M117.54,31.83v-14.6c0-1.96,1.03-2.58,2.5-2.58h6.21c3.19,0,4.29,1.99,4.29,5.42s-1.1,5.74-3.73,5.74h-.25v.12l4.32,5.89h-3.93l-3.83-5.57c-.32-.47-.56-.96-.56-1.45v-.39c0-.69.49-1.18,1.45-1.18h1.13c1.79,0,2.06-1.2,2.06-3.17s-.37-2.85-2.43-2.85h-2.77c-.98,0-1.23.25-1.23,1.23v13.37h-3.24Z"/>
    </g>
    <g>
      <path class="cls-18" d="M49.7,29.21c-.37,1.59-1.23,2.06-2.7,2.06s-2.33-.47-2.7-2.06l-2.67-11.46c-.1-.44-.25-.56-.42-.56-.27,0-.27.44-.27.52l.07,13.37h-3.24v-15.11c0-1.57,1.06-2.26,2.77-2.26,1.96,0,2.92.74,3.26,2.21l2.72,11.46c.1.39.29.64.47.64s.37-.25.47-.64l2.72-11.46c.34-1.47,1.3-2.21,3.26-2.21,1.72,0,2.77.69,2.77,2.26v15.11h-3.24l.1-13.37c0-.49-.2-.52-.29-.52-.17,0-.32.15-.42.56l-2.67,11.46Z"/>
      <path class="cls-18" d="M69.98,31.08h-8.32c-1.47,0-2.5-.61-2.5-2.58v-12.02c0-1.96,1.03-2.58,2.5-2.58h8.22v2.58h-6.26c-.98,0-1.23.25-1.23,1.23v3.31h7.24v2.58h-7.24v3.68c0,.98.25,1.23,1.23,1.23h6.35v2.58Z"/>
      <path class="cls-18" d="M71.67,28.5h6.55c1.55,0,1.62-1.03,1.62-1.62,0-.66-.32-1.42-1.67-2.18l-3.8-2.13c-2.04-1.13-2.92-2.4-2.92-4.76s1.2-3.9,3.93-3.9h7.17v2.58h-6.31c-.81,0-1.45.25-1.45,1.47,0,.76.27,1.45,1.5,2.18l3.31,1.99c2.21,1.3,3.58,2.09,3.58,4.78,0,2.53-1.03,4.17-3.68,4.17h-7.83v-2.58Z"/>
      <path class="cls-18" d="M84.63,28.5h6.55c1.55,0,1.62-1.03,1.62-1.62,0-.66-.32-1.42-1.67-2.18l-3.8-2.13c-2.04-1.13-2.92-2.4-2.92-4.76s1.2-3.9,3.93-3.9h7.17v2.58h-6.31c-.81,0-1.45.25-1.45,1.47,0,.76.27,1.45,1.5,2.18l3.31,1.99c2.21,1.3,3.58,2.09,3.58,4.78,0,2.53-1.03,4.17-3.68,4.17h-7.83v-2.58Z"/>
      <rect class="cls-18" x="98.34" y="13.9" width="3.24" height="17.18"/>
      <path class="cls-18" d="M115.34,31.08h-8.32c-1.47,0-2.5-.61-2.5-2.58v-12.02c0-1.96,1.03-2.58,2.5-2.58h8.22v2.58h-6.26c-.98,0-1.23.25-1.23,1.23v3.31h7.24v2.58h-7.24v3.68c0,.98.25,1.23,1.23,1.23h6.35v2.58Z"/>
      <path class="cls-18" d="M117.54,31.08v-14.6c0-1.96,1.03-2.58,2.5-2.58h6.21c3.19,0,4.29,1.99,4.29,5.42s-1.1,5.74-3.73,5.74h-.25v.12l4.32,5.89h-3.93l-3.83-5.57c-.32-.47-.56-.96-.56-1.45v-.39c0-.69.49-1.18,1.45-1.18h1.13c1.79,0,2.06-1.2,2.06-3.17s-.37-2.85-2.43-2.85h-2.77c-.98,0-1.23.25-1.23,1.23v13.37h-3.24Z"/>
    </g>
    <text class="cls-9" transform="translate(36.3 30.33)"><tspan x="0" y="0">ME</tspan><tspan class="cls-6" x="34.41" y="0">S</tspan><tspan x="47.37" y="0">SIER</tspan></text>
    <g>
      <path class="cls-22" d="M49.7,27.71c-.37,1.59-1.23,2.06-2.7,2.06s-2.33-.47-2.7-2.06l-2.67-11.46c-.1-.44-.25-.56-.42-.56-.27,0-.27.44-.27.52l.07,13.37h-3.24v-15.11c0-1.57,1.06-2.26,2.77-2.26,1.96,0,2.92.74,3.26,2.21l2.72,11.46c.1.39.29.64.47.64s.37-.25.47-.64l2.72-11.46c.34-1.47,1.3-2.21,3.26-2.21,1.72,0,2.77.69,2.77,2.26v15.11h-3.24l.1-13.37c0-.49-.2-.52-.29-.52-.17,0-.32.15-.42.56l-2.67,11.46Z"/>
      <path class="cls-22" d="M69.98,29.58h-8.32c-1.47,0-2.5-.61-2.5-2.58v-12.02c0-1.96,1.03-2.58,2.5-2.58h8.22v2.58h-6.26c-.98,0-1.23.25-1.23,1.23v3.31h7.24v2.58h-7.24v3.68c0,.98.25,1.23,1.23,1.23h6.35v2.58Z"/>
      <path class="cls-22" d="M71.67,27h6.55c1.55,0,1.62-1.03,1.62-1.62,0-.66-.32-1.42-1.67-2.18l-3.8-2.13c-2.04-1.13-2.92-2.4-2.92-4.76s1.2-3.9,3.93-3.9h7.17v2.58h-6.31c-.81,0-1.45.25-1.45,1.47,0,.76.27,1.45,1.5,2.18l3.31,1.99c2.21,1.3,3.58,2.09,3.58,4.78,0,2.53-1.03,4.17-3.68,4.17h-7.83v-2.58Z"/>
      <path class="cls-22" d="M84.63,27h6.55c1.55,0,1.62-1.03,1.62-1.62,0-.66-.32-1.42-1.67-2.18l-3.8-2.13c-2.04-1.13-2.92-2.4-2.92-4.76s1.2-3.9,3.93-3.9h7.17v2.58h-6.31c-.81,0-1.45.25-1.45,1.47,0,.76.27,1.45,1.5,2.18l3.31,1.99c2.21,1.3,3.58,2.09,3.58,4.78,0,2.53-1.03,4.17-3.68,4.17h-7.83v-2.58Z"/>
      <rect class="cls-22" x="98.34" y="12.4" width="3.24" height="17.18"/>
      <path class="cls-22" d="M115.34,29.58h-8.32c-1.47,0-2.5-.61-2.5-2.58v-12.02c0-1.96,1.03-2.58,2.5-2.58h8.22v2.58h-6.26c-.98,0-1.23.25-1.23,1.23v3.31h7.24v2.58h-7.24v3.68c0,.98.25,1.23,1.23,1.23h6.35v2.58Z"/>
      <path class="cls-22" d="M117.54,29.58v-14.6c0-1.96,1.03-2.58,2.5-2.58h6.21c3.19,0,4.29,1.99,4.29,5.42s-1.1,5.74-3.73,5.74h-.25v.12l4.32,5.89h-3.93l-3.83-5.57c-.32-.47-.56-.96-.56-1.45v-.39c0-.69.49-1.18,1.45-1.18h1.13c1.79,0,2.06-1.2,2.06-3.17s-.37-2.85-2.43-2.85h-2.77c-.98,0-1.23.25-1.23,1.23v13.37h-3.24Z"/>
    </g>
    <g>
      <path class="cls-19" d="M49.7,26.96c-.37,1.59-1.23,2.06-2.7,2.06s-2.33-.47-2.7-2.06l-2.67-11.46c-.1-.44-.25-.56-.42-.56-.27,0-.27.44-.27.52l.07,13.37h-3.24v-15.11c0-1.57,1.06-2.26,2.77-2.26,1.96,0,2.92.74,3.26,2.21l2.72,11.46c.1.39.29.64.47.64s.37-.25.47-.64l2.72-11.46c.34-1.47,1.3-2.21,3.26-2.21,1.72,0,2.77.69,2.77,2.26v15.11h-3.24l.1-13.37c0-.49-.2-.52-.29-.52-.17,0-.32.15-.42.56l-2.67,11.46Z"/>
      <path class="cls-19" d="M69.98,28.83h-8.32c-1.47,0-2.5-.61-2.5-2.58v-12.02c0-1.96,1.03-2.58,2.5-2.58h8.22v2.58h-6.26c-.98,0-1.23.25-1.23,1.23v3.31h7.24v2.58h-7.24v3.68c0,.98.25,1.23,1.23,1.23h6.35v2.58Z"/>
      <path class="cls-19" d="M71.67,26.25h6.55c1.55,0,1.62-1.03,1.62-1.62,0-.66-.32-1.42-1.67-2.18l-3.8-2.13c-2.04-1.13-2.92-2.4-2.92-4.76s1.2-3.9,3.93-3.9h7.17v2.58h-6.31c-.81,0-1.45.25-1.45,1.47,0,.76.27,1.45,1.5,2.18l3.31,1.99c2.21,1.3,3.58,2.09,3.58,4.78,0,2.53-1.03,4.17-3.68,4.17h-7.83v-2.58Z"/>
      <path class="cls-19" d="M84.63,26.25h6.55c1.55,0,1.62-1.03,1.62-1.62,0-.66-.32-1.42-1.67-2.18l-3.8-2.13c-2.04-1.13-2.92-2.4-2.92-4.76s1.2-3.9,3.93-3.9h7.17v2.58h-6.31c-.81,0-1.45.25-1.45,1.47,0,.76.27,1.45,1.5,2.18l3.31,1.99c2.21,1.3,3.58,2.09,3.58,4.78,0,2.53-1.03,4.17-3.68,4.17h-7.83v-2.58Z"/>
      <rect class="cls-19" x="98.34" y="11.65" width="3.24" height="17.18"/>
      <path class="cls-19" d="M115.34,28.83h-8.32c-1.47,0-2.5-.61-2.5-2.58v-12.02c0-1.96,1.03-2.58,2.5-2.58h8.22v2.58h-6.26c-.98,0-1.23.25-1.23,1.23v3.31h7.24v2.58h-7.24v3.68c0,.98.25,1.23,1.23,1.23h6.35v2.58Z"/>
      <path class="cls-19" d="M117.54,28.83v-14.6c0-1.96,1.03-2.58,2.5-2.58h6.21c3.19,0,4.29,1.99,4.29,5.42s-1.1,5.74-3.73,5.74h-.25v.12l4.32,5.89h-3.93l-3.83-5.57c-.32-.47-.56-.96-.56-1.45v-.39c0-.69.49-1.18,1.45-1.18h1.13c1.79,0,2.06-1.2,2.06-3.17s-.37-2.85-2.43-2.85h-2.77c-.98,0-1.23.25-1.23,1.23v13.37h-3.24Z"/>
    </g>
    <g>
      <path class="cls-25" d="M49.7,26.21c-.37,1.59-1.23,2.06-2.7,2.06s-2.33-.47-2.7-2.06l-2.67-11.46c-.1-.44-.25-.56-.42-.56-.27,0-.27.44-.27.52l.07,13.37h-3.24v-15.11c0-1.57,1.06-2.26,2.77-2.26,1.96,0,2.92.74,3.26,2.21l2.72,11.46c.1.39.29.64.47.64s.37-.25.47-.64l2.72-11.46c.34-1.47,1.3-2.21,3.26-2.21,1.72,0,2.77.69,2.77,2.26v15.11h-3.24l.1-13.37c0-.49-.2-.52-.29-.52-.17,0-.32.15-.42.56l-2.67,11.46Z"/>
      <path class="cls-25" d="M69.98,28.08h-8.32c-1.47,0-2.5-.61-2.5-2.58v-12.02c0-1.96,1.03-2.58,2.5-2.58h8.22v2.58h-6.26c-.98,0-1.23.25-1.23,1.23v3.31h7.24v2.58h-7.24v3.68c0,.98.25,1.23,1.23,1.23h6.35v2.58Z"/>
      <path class="cls-25" d="M71.67,25.5h6.55c1.55,0,1.62-1.03,1.62-1.62,0-.66-.32-1.42-1.67-2.18l-3.8-2.13c-2.04-1.13-2.92-2.4-2.92-4.76s1.2-3.9,3.93-3.9h7.17v2.58h-6.31c-.81,0-1.45.25-1.45,1.47,0,.76.27,1.45,1.5,2.18l3.31,1.99c2.21,1.3,3.58,2.09,3.58,4.78,0,2.53-1.03,4.17-3.68,4.17h-7.83v-2.58Z"/>
      <path class="cls-25" d="M84.63,25.5h6.55c1.55,0,1.62-1.03,1.62-1.62,0-.66-.32-1.42-1.67-2.18l-3.8-2.13c-2.04-1.13-2.92-2.4-2.92-4.76s1.2-3.9,3.93-3.9h7.17v2.58h-6.31c-.81,0-1.45.25-1.45,1.47,0,.76.27,1.45,1.5,2.18l3.31,1.99c2.21,1.3,3.58,2.09,3.58,4.78,0,2.53-1.03,4.17-3.68,4.17h-7.83v-2.58Z"/>
      <rect class="cls-25" x="98.34" y="10.9" width="3.24" height="17.18"/>
      <path class="cls-25" d="M115.34,28.08h-8.32c-1.47,0-2.5-.61-2.5-2.58v-12.02c0-1.96,1.03-2.58,2.5-2.58h8.22v2.58h-6.26c-.98,0-1.23.25-1.23,1.23v3.31h7.24v2.58h-7.24v3.68c0,.98.25,1.23,1.23,1.23h6.35v2.58Z"/>
      <path class="cls-25" d="M117.54,28.08v-14.6c0-1.96,1.03-2.58,2.5-2.58h6.21c3.19,0,4.29,1.99,4.29,5.42s-1.1,5.74-3.73,5.74h-.25v.12l4.32,5.89h-3.93l-3.83-5.57c-.32-.47-.56-.96-.56-1.45v-.39c0-.69.49-1.18,1.45-1.18h1.13c1.79,0,2.06-1.2,2.06-3.17s-.37-2.85-2.43-2.85h-2.77c-.98,0-1.23.25-1.23,1.23v13.37h-3.24Z"/>
    </g>
    <text class="cls-11" transform="translate(36.3 27.33)"><tspan x="0" y="0">ME</tspan><tspan class="cls-6" x="34.41" y="0">S</tspan><tspan x="47.37" y="0">SIER</tspan></text>
    <g>
      <path class="cls-21" d="M49.7,24.71c-.37,1.59-1.23,2.06-2.7,2.06s-2.33-.47-2.7-2.06l-2.67-11.46c-.1-.44-.25-.56-.42-.56-.27,0-.27.44-.27.52l.07,13.37h-3.24v-15.11c0-1.57,1.06-2.26,2.77-2.26,1.96,0,2.92.74,3.26,2.21l2.72,11.46c.1.39.29.64.47.64s.37-.25.47-.64l2.72-11.46c.34-1.47,1.3-2.21,3.26-2.21,1.72,0,2.77.69,2.77,2.26v15.11h-3.24l.1-13.37c0-.49-.2-.52-.29-.52-.17,0-.32.15-.42.56l-2.67,11.46Z"/>
      <path class="cls-21" d="M69.98,26.58h-8.32c-1.47,0-2.5-.61-2.5-2.58v-12.02c0-1.96,1.03-2.58,2.5-2.58h8.22v2.58h-6.26c-.98,0-1.23.25-1.23,1.23v3.31h7.24v2.58h-7.24v3.68c0,.98.25,1.23,1.23,1.23h6.35v2.58Z"/>
      <path class="cls-21" d="M71.67,24h6.55c1.55,0,1.62-1.03,1.62-1.62,0-.66-.32-1.42-1.67-2.18l-3.8-2.13c-2.04-1.13-2.92-2.4-2.92-4.76s1.2-3.9,3.93-3.9h7.17v2.58h-6.31c-.81,0-1.45.25-1.45,1.47,0,.76.27,1.45,1.5,2.18l3.31,1.99c2.21,1.3,3.58,2.09,3.58,4.78,0,2.53-1.03,4.17-3.68,4.17h-7.83v-2.58Z"/>
      <path class="cls-21" d="M84.63,24h6.55c1.55,0,1.62-1.03,1.62-1.62,0-.66-.32-1.42-1.67-2.18l-3.8-2.13c-2.04-1.13-2.92-2.4-2.92-4.76s1.2-3.9,3.93-3.9h7.17v2.58h-6.31c-.81,0-1.45.25-1.45,1.47,0,.76.27,1.45,1.5,2.18l3.31,1.99c2.21,1.3,3.58,2.09,3.58,4.78,0,2.53-1.03,4.17-3.68,4.17h-7.83v-2.58Z"/>
      <rect class="cls-21" x="98.34" y="9.4" width="3.24" height="17.18"/>
      <path class="cls-21" d="M115.34,26.58h-8.32c-1.47,0-2.5-.61-2.5-2.58v-12.02c0-1.96,1.03-2.58,2.5-2.58h8.22v2.58h-6.26c-.98,0-1.23.25-1.23,1.23v3.31h7.24v2.58h-7.24v3.68c0,.98.25,1.23,1.23,1.23h6.35v2.58Z"/>
      <path class="cls-21" d="M117.54,26.58v-14.6c0-1.96,1.03-2.58,2.5-2.58h6.21c3.19,0,4.29,1.99,4.29,5.42s-1.1,5.74-3.73,5.74h-.25v.12l4.32,5.89h-3.93l-3.83-5.57c-.32-.47-.56-.96-.56-1.45v-.39c0-.69.49-1.18,1.45-1.18h1.13c1.79,0,2.06-1.2,2.06-3.17s-.37-2.85-2.43-2.85h-2.77c-.98,0-1.23.25-1.23,1.23v13.37h-3.24Z"/>
    </g>
    <g>
      <path class="cls-17" d="M49.7,23.96c-.37,1.59-1.23,2.06-2.7,2.06s-2.33-.47-2.7-2.06l-2.67-11.46c-.1-.44-.25-.56-.42-.56-.27,0-.27.44-.27.52l.07,13.37h-3.24v-15.11c0-1.57,1.06-2.26,2.77-2.26,1.96,0,2.92.74,3.26,2.21l2.72,11.46c.1.39.29.64.47.64s.37-.25.47-.64l2.72-11.46c.34-1.47,1.3-2.21,3.26-2.21,1.72,0,2.77.69,2.77,2.26v15.11h-3.24l.1-13.37c0-.49-.2-.52-.29-.52-.17,0-.32.15-.42.56l-2.67,11.46Z"/>
      <path class="cls-17" d="M69.98,25.83h-8.32c-1.47,0-2.5-.61-2.5-2.58v-12.02c0-1.96,1.03-2.58,2.5-2.58h8.22v2.58h-6.26c-.98,0-1.23.25-1.23,1.23v3.31h7.24v2.58h-7.24v3.68c0,.98.25,1.23,1.23,1.23h6.35v2.58Z"/>
      <path class="cls-17" d="M71.67,23.25h6.55c1.55,0,1.62-1.03,1.62-1.62,0-.66-.32-1.42-1.67-2.18l-3.8-2.13c-2.04-1.13-2.92-2.4-2.92-4.76s1.2-3.9,3.93-3.9h7.17v2.58h-6.31c-.81,0-1.45.25-1.45,1.47,0,.76.27,1.45,1.5,2.18l3.31,1.99c2.21,1.3,3.58,2.09,3.58,4.78,0,2.53-1.03,4.17-3.68,4.17h-7.83v-2.58Z"/>
      <path class="cls-17" d="M84.63,23.25h6.55c1.55,0,1.62-1.03,1.62-1.62,0-.66-.32-1.42-1.67-2.18l-3.8-2.13c-2.04-1.13-2.92-2.4-2.92-4.76s1.2-3.9,3.93-3.9h7.17v2.58h-6.31c-.81,0-1.45.25-1.45,1.47,0,.76.27,1.45,1.5,2.18l3.31,1.99c2.21,1.3,3.58,2.09,3.58,4.78,0,2.53-1.03,4.17-3.68,4.17h-7.83v-2.58Z"/>
      <rect class="cls-17" x="98.34" y="8.65" width="3.24" height="17.18"/>
      <path class="cls-17" d="M115.34,25.83h-8.32c-1.47,0-2.5-.61-2.5-2.58v-12.02c0-1.96,1.03-2.58,2.5-2.58h8.22v2.58h-6.26c-.98,0-1.23.25-1.23,1.23v3.31h7.24v2.58h-7.24v3.68c0,.98.25,1.23,1.23,1.23h6.35v2.58Z"/>
      <path class="cls-17" d="M117.54,25.83v-14.6c0-1.96,1.03-2.58,2.5-2.58h6.21c3.19,0,4.29,1.99,4.29,5.42s-1.1,5.74-3.73,5.74h-.25v.12l4.32,5.89h-3.93l-3.83-5.57c-.32-.47-.56-.96-.56-1.45v-.39c0-.69.49-1.18,1.45-1.18h1.13c1.79,0,2.06-1.2,2.06-3.17s-.37-2.85-2.43-2.85h-2.77c-.98,0-1.23.25-1.23,1.23v13.37h-3.24Z"/>
    </g>
    <g>
      <path class="cls-14" d="M49.7,23.21c-.37,1.59-1.23,2.06-2.7,2.06s-2.33-.47-2.7-2.06l-2.67-11.46c-.1-.44-.25-.56-.42-.56-.27,0-.27.44-.27.52l.07,13.37h-3.24v-15.11c0-1.57,1.06-2.26,2.77-2.26,1.96,0,2.92.74,3.26,2.21l2.72,11.46c.1.39.29.64.47.64s.37-.25.47-.64l2.72-11.46c.34-1.47,1.3-2.21,3.26-2.21,1.72,0,2.77.69,2.77,2.26v15.11h-3.24l.1-13.37c0-.49-.2-.52-.29-.52-.17,0-.32.15-.42.56l-2.67,11.46Z"/>
      <path class="cls-14" d="M69.98,25.08h-8.32c-1.47,0-2.5-.61-2.5-2.58v-12.02c0-1.96,1.03-2.58,2.5-2.58h8.22v2.58h-6.26c-.98,0-1.23.25-1.23,1.23v3.31h7.24v2.58h-7.24v3.68c0,.98.25,1.23,1.23,1.23h6.35v2.58Z"/>
      <path class="cls-14" d="M71.67,22.5h6.55c1.55,0,1.62-1.03,1.62-1.62,0-.66-.32-1.42-1.67-2.18l-3.8-2.13c-2.04-1.13-2.92-2.4-2.92-4.76s1.2-3.9,3.93-3.9h7.17v2.58h-6.31c-.81,0-1.45.25-1.45,1.47,0,.76.27,1.45,1.5,2.18l3.31,1.99c2.21,1.3,3.58,2.09,3.58,4.78,0,2.53-1.03,4.17-3.68,4.17h-7.83v-2.58Z"/>
      <path class="cls-14" d="M84.63,22.5h6.55c1.55,0,1.62-1.03,1.62-1.62,0-.66-.32-1.42-1.67-2.18l-3.8-2.13c-2.04-1.13-2.92-2.4-2.92-4.76s1.2-3.9,3.93-3.9h7.17v2.58h-6.31c-.81,0-1.45.25-1.45,1.47,0,.76.27,1.45,1.5,2.18l3.31,1.99c2.21,1.3,3.58,2.09,3.58,4.78,0,2.53-1.03,4.17-3.68,4.17h-7.83v-2.58Z"/>
      <rect class="cls-14" x="98.34" y="7.9" width="3.24" height="17.18"/>
      <path class="cls-14" d="M115.34,25.08h-8.32c-1.47,0-2.5-.61-2.5-2.58v-12.02c0-1.96,1.03-2.58,2.5-2.58h8.22v2.58h-6.26c-.98,0-1.23.25-1.23,1.23v3.31h7.24v2.58h-7.24v3.68c0,.98.25,1.23,1.23,1.23h6.35v2.58Z"/>
      <path class="cls-14" d="M117.54,25.08v-14.6c0-1.96,1.03-2.58,2.5-2.58h6.21c3.19,0,4.29,1.99,4.29,5.42s-1.1,5.74-3.73,5.74h-.25v.12l4.32,5.89h-3.93l-3.83-5.57c-.32-.47-.56-.96-.56-1.45v-.39c0-.69.49-1.18,1.45-1.18h1.13c1.79,0,2.06-1.2,2.06-3.17s-.37-2.85-2.43-2.85h-2.77c-.98,0-1.23.25-1.23,1.23v13.37h-3.24Z"/>
    </g>
    <text class="cls-12" transform="translate(36.3 24.33)"><tspan x="0" y="0">ME</tspan><tspan class="cls-6" x="34.41" y="0">S</tspan><tspan x="47.37" y="0">SIER</tspan></text>
    <g>
      <path class="cls-1" d="M49.7,21.61c-.37,1.59-1.23,2.06-2.7,2.06s-2.33-.47-2.7-2.06l-2.67-11.46c-.1-.44-.25-.56-.42-.56-.27,0-.27.44-.27.52l.07,13.37h-3.24v-15.11c0-1.57,1.06-2.26,2.77-2.26,1.96,0,2.92.74,3.26,2.21l2.72,11.46c.1.39.29.64.47.64s.37-.25.47-.64l2.72-11.46c.34-1.47,1.3-2.21,3.26-2.21,1.72,0,2.77.69,2.77,2.26v15.11h-3.24l.1-13.37c0-.49-.2-.52-.29-.52-.17,0-.32.15-.42.56l-2.67,11.46Z"/>
      <path class="cls-1" d="M69.98,23.47h-8.32c-1.47,0-2.5-.61-2.5-2.58v-12.02c0-1.96,1.03-2.58,2.5-2.58h8.22v2.58h-6.26c-.98,0-1.23.25-1.23,1.23v3.31h7.24v2.58h-7.24v3.68c0,.98.25,1.23,1.23,1.23h6.35v2.58Z"/>
      <path class="cls-1" d="M71.67,20.89h6.55c1.55,0,1.62-1.03,1.62-1.62,0-.66-.32-1.42-1.67-2.18l-3.8-2.13c-2.04-1.13-2.92-2.4-2.92-4.76s1.2-3.9,3.93-3.9h7.17v2.58h-6.31c-.81,0-1.45.25-1.45,1.47,0,.76.27,1.45,1.5,2.18l3.31,1.99c2.21,1.3,3.58,2.09,3.58,4.78,0,2.53-1.03,4.17-3.68,4.17h-7.83v-2.58Z"/>
      <path class="cls-1" d="M84.63,20.89h6.55c1.55,0,1.62-1.03,1.62-1.62,0-.66-.32-1.42-1.67-2.18l-3.8-2.13c-2.04-1.13-2.92-2.4-2.92-4.76s1.2-3.9,3.93-3.9h7.17v2.58h-6.31c-.81,0-1.45.25-1.45,1.47,0,.76.27,1.45,1.5,2.18l3.31,1.99c2.21,1.3,3.58,2.09,3.58,4.78,0,2.53-1.03,4.17-3.68,4.17h-7.83v-2.58Z"/>
      <rect class="cls-1" x="98.34" y="6.3" width="3.24" height="17.18"/>
      <path class="cls-1" d="M115.34,23.47h-8.32c-1.47,0-2.5-.61-2.5-2.58v-12.02c0-1.96,1.03-2.58,2.5-2.58h8.22v2.58h-6.26c-.98,0-1.23.25-1.23,1.23v3.31h7.24v2.58h-7.24v3.68c0,.98.25,1.23,1.23,1.23h6.35v2.58Z"/>
      <path class="cls-1" d="M117.54,23.47v-14.6c0-1.96,1.03-2.58,2.5-2.58h6.21c3.19,0,4.29,1.99,4.29,5.42s-1.1,5.74-3.73,5.74h-.25v.12l4.32,5.89h-3.93l-3.83-5.57c-.32-.47-.56-.96-.56-1.45v-.39c0-.69.49-1.18,1.45-1.18h1.13c1.79,0,2.06-1.2,2.06-3.17s-.37-2.85-2.43-2.85h-2.77c-.98,0-1.23.25-1.23,1.23v13.37h-3.24Z"/>
    </g>
    <g>
      <path class="cls-2" d="M49.7,20.75c-.37,1.59-1.23,2.06-2.7,2.06s-2.33-.47-2.7-2.06l-2.67-11.46c-.1-.44-.25-.56-.42-.56-.27,0-.27.44-.27.52l.07,13.37h-3.24V7.5c0-1.57,1.06-2.26,2.77-2.26,1.96,0,2.92.74,3.26,2.21l2.72,11.46c.1.39.29.64.47.64s.37-.25.47-.64l2.72-11.46c.34-1.47,1.3-2.21,3.26-2.21,1.72,0,2.77.69,2.77,2.26v15.11h-3.24l.1-13.37c0-.49-.2-.52-.29-.52-.17,0-.32.15-.42.56l-2.67,11.46Z"/>
      <path class="cls-2" d="M69.98,22.61h-8.32c-1.47,0-2.5-.61-2.5-2.58v-12.02c0-1.96,1.03-2.58,2.5-2.58h8.22v2.58h-6.26c-.98,0-1.23.25-1.23,1.23v3.31h7.24v2.58h-7.24v3.68c0,.98.25,1.23,1.23,1.23h6.35v2.58Z"/>
      <path class="cls-2" d="M71.67,20.04h6.55c1.55,0,1.62-1.03,1.62-1.62,0-.66-.32-1.42-1.67-2.18l-3.8-2.13c-2.04-1.13-2.92-2.4-2.92-4.76s1.2-3.9,3.93-3.9h7.17v2.58h-6.31c-.81,0-1.45.25-1.45,1.47,0,.76.27,1.45,1.5,2.18l3.31,1.99c2.21,1.3,3.58,2.09,3.58,4.78,0,2.53-1.03,4.17-3.68,4.17h-7.83v-2.58Z"/>
      <path class="cls-2" d="M84.63,20.04h6.55c1.55,0,1.62-1.03,1.62-1.62,0-.66-.32-1.42-1.67-2.18l-3.8-2.13c-2.04-1.13-2.92-2.4-2.92-4.76s1.2-3.9,3.93-3.9h7.17v2.58h-6.31c-.81,0-1.45.25-1.45,1.47,0,.76.27,1.45,1.5,2.18l3.31,1.99c2.21,1.3,3.58,2.09,3.58,4.78,0,2.53-1.03,4.17-3.68,4.17h-7.83v-2.58Z"/>
      <rect class="cls-2" x="98.34" y="5.44" width="3.24" height="17.18"/>
      <path class="cls-2" d="M115.34,22.61h-8.32c-1.47,0-2.5-.61-2.5-2.58v-12.02c0-1.96,1.03-2.58,2.5-2.58h8.22v2.58h-6.26c-.98,0-1.23.25-1.23,1.23v3.31h7.24v2.58h-7.24v3.68c0,.98.25,1.23,1.23,1.23h6.35v2.58Z"/>
      <path class="cls-2" d="M117.54,22.61v-14.6c0-1.96,1.03-2.58,2.5-2.58h6.21c3.19,0,4.29,1.99,4.29,5.42s-1.1,5.74-3.73,5.74h-.25v.12l4.32,5.89h-3.93l-3.83-5.57c-.32-.47-.56-.96-.56-1.45v-.39c0-.69.49-1.18,1.45-1.18h1.13c1.79,0,2.06-1.2,2.06-3.17s-.37-2.85-2.43-2.85h-2.77c-.98,0-1.23.25-1.23,1.23v13.37h-3.24Z"/>
    </g>
    <g>
      <path class="cls-4" d="M49.7,19.89c-.37,1.59-1.23,2.06-2.7,2.06s-2.33-.47-2.7-2.06l-2.67-11.46c-.1-.44-.25-.56-.42-.56-.27,0-.27.44-.27.52l.07,13.37h-3.24V6.64c0-1.57,1.06-2.26,2.77-2.26,1.96,0,2.92.74,3.26,2.21l2.72,11.46c.1.39.29.64.47.64s.37-.25.47-.64l2.72-11.46c.34-1.47,1.3-2.21,3.26-2.21,1.72,0,2.77.69,2.77,2.26v15.11h-3.24l.1-13.37c0-.49-.2-.52-.29-.52-.17,0-.32.15-.42.56l-2.67,11.46Z"/>
      <path class="cls-4" d="M69.98,21.76h-8.32c-1.47,0-2.5-.61-2.5-2.58V7.16c0-1.96,1.03-2.58,2.5-2.58h8.22v2.58h-6.26c-.98,0-1.23.25-1.23,1.23v3.31h7.24v2.58h-7.24v3.68c0,.98.25,1.23,1.23,1.23h6.35v2.58Z"/>
      <path class="cls-4" d="M71.67,19.18h6.55c1.55,0,1.62-1.03,1.62-1.62,0-.66-.32-1.42-1.67-2.18l-3.8-2.13c-2.04-1.13-2.92-2.4-2.92-4.76s1.2-3.9,3.93-3.9h7.17v2.58h-6.31c-.81,0-1.45.25-1.45,1.47,0,.76.27,1.45,1.5,2.18l3.31,1.99c2.21,1.3,3.58,2.09,3.58,4.78,0,2.53-1.03,4.17-3.68,4.17h-7.83v-2.58Z"/>
      <path class="cls-4" d="M84.63,19.18h6.55c1.55,0,1.62-1.03,1.62-1.62,0-.66-.32-1.42-1.67-2.18l-3.8-2.13c-2.04-1.13-2.92-2.4-2.92-4.76s1.2-3.9,3.93-3.9h7.17v2.58h-6.31c-.81,0-1.45.25-1.45,1.47,0,.76.27,1.45,1.5,2.18l3.31,1.99c2.21,1.3,3.58,2.09,3.58,4.78,0,2.53-1.03,4.17-3.68,4.17h-7.83v-2.58Z"/>
      <rect class="cls-4" x="98.34" y="4.58" width="3.24" height="17.18"/>
      <path class="cls-4" d="M115.34,21.76h-8.32c-1.47,0-2.5-.61-2.5-2.58V7.16c0-1.96,1.03-2.58,2.5-2.58h8.22v2.58h-6.26c-.98,0-1.23.25-1.23,1.23v3.31h7.24v2.58h-7.24v3.68c0,.98.25,1.23,1.23,1.23h6.35v2.58Z"/>
      <path class="cls-4" d="M117.54,21.76V7.16c0-1.96,1.03-2.58,2.5-2.58h6.21c3.19,0,4.29,1.99,4.29,5.42s-1.1,5.74-3.73,5.74h-.25v.12l4.32,5.89h-3.93l-3.83-5.57c-.32-.47-.56-.96-.56-1.45v-.39c0-.69.49-1.18,1.45-1.18h1.13c1.79,0,2.06-1.2,2.06-3.17s-.37-2.85-2.43-2.85h-2.77c-.98,0-1.23.25-1.23,1.23v13.37h-3.24Z"/>
    </g>
    <text class="cls-3" transform="translate(36.3 20.9)"><tspan x="0" y="0">ME</tspan><tspan class="cls-6" x="34.41" y="0">S</tspan><tspan x="47.37" y="0">SIER</tspan></text>
  </g>
</svg>