<?xml version="1.0" encoding="UTF-8"?>
<svg id="Layer_1" data-name="Layer 1" xmlns="http://www.w3.org/2000/svg" viewBox="0 0 446.54 360">
  <defs>
    <style>
      .cls-1 {
        fill: #e06236;
      }

      .cls-2 {
        fill: #4a668d;
      }

      .cls-3 {
        fill: #f4f5f7;
      }

      .cls-4 {
        fill: #d7a64b;
      }

      .cls-5 {
        fill: #d28a57;
      }

      .cls-6 {
        fill: #2b4d7d;
      }

      .cls-6, .cls-7, .cls-8, .cls-9, .cls-10 {
        font-family: MagistralCond-Medium, 'Magistral Cond Medium';
        font-size: 114.79px;
        font-weight: 500;
      }

      .cls-11 {
        fill: #c72138;
      }

      .cls-12 {
        fill: #dcbe88;
      }

      .cls-7 {
        fill: #d4ac63;
      }

      .cls-13 {
        fill: #304c7a;
      }

      .cls-14 {
        fill: #d1684c;
      }

      .cls-8 {
        fill: #f4f5f7;
      }

      .cls-15 {
        fill: #b75e47;
      }

      .cls-16 {
        fill: #d94435;
      }

      .cls-17 {
        fill: #59536b;
      }

      .cls-18 {
        letter-spacing: 0em;
      }

      .cls-19 {
        fill: #cf4640;
      }

      .cls-20 {
        fill: #ece3d2;
      }

      .cls-9 {
        fill: #e56335;
      }

      .cls-21 {
        fill: #df5335;
      }

      .cls-22 {
        fill: #21314f;
      }

      .cls-23 {
        fill: #885859;
      }

      .cls-24 {
        fill: #d33435;
      }

      .cls-25 {
        fill: #e4d1ad;
      }

      .cls-10 {
        fill: #cd2435;
      }
    </style>
  </defs>
  <g>
    <circle class="cls-22" cx="223.78" cy="180" r="180"/>
    <path shape-rendering="geometricPrecision"  class="cls-13" d="M363.48,133.9c-15.9-21.9-40.5-65.1-27.4-94.4-1.9-1.5-3.9-3.1-5.9-4.5,0,0-.1,0-.1-.1-1-.7-2-1.4-3-2.1-.1,0-.1-.1-.2-.1-1.1-.7-2.1-1.4-3.2-2.2-2-1.4-4-2.6-6.1-3.9-.1,0-.1-.1-.2-.1-1-.6-2-1.3-3.1-1.8-.1,0-.1-.1-.2-.1-2.1-1.3-4.3-2.4-6.4-3.5,0,0-.1,0-.1-.1-1.1-.5-2.1-1.1-3.2-1.6-.1-.1-.2-.1-.3-.2-1.1-.5-2.1-1.1-3.2-1.5-.1,0-.2-.1-.3-.1-2.2-1-4.3-2-6.6-3-.1,0-.2-.1-.3-.1-1.1-.5-2.2-.9-3.3-1.4-.1-.1-.3-.1-.4-.2-1.1-.5-2.2-.9-3.3-1.3-.1,0-.2-.1-.2-.1-1.2-.5-2.3-.8-3.4-1.3h0C264.98,3.6,244.88,0,223.78,0s-41.2,3.6-60,10.2h0c-1.2.4-2.3.8-3.4,1.3-.1,0-.2.1-.2.1-1.1.5-2.2.8-3.3,1.3-.1.1-.3.1-.4.2-1.1.5-2.2.9-3.3,1.4-.1,0-.2.1-.3.1-2.2.9-4.4,1.9-6.6,3-.1,0-.2.1-.3.1-1.1.5-2.1,1-3.2,1.5-.1.1-.2.1-.3.2-1.1.5-2.1,1.1-3.2,1.6,0,0-.1,0-.1.1-2.2,1.2-4.3,2.4-6.4,3.5-.1,0-.1.1-.2.1-1,.6-2.1,1.2-3.1,1.8-.1,0-.1.1-.2.1-1.5,1-3.1,2-4.6,3s-3.1,2.1-4.5,3.1c-.1,0-.1.1-.2.1-1,.7-2,1.4-3,2.1,0,0-.1,0-.1.1-2,1.4-4,3-5.9,4.5,13.1,29.2-11.5,72.5-27.4,94.4-12.6,17.4-27.9,34.1-40.1,52.3.1,3.8.4,7.6.7,11.4h0c.4,3.7.8,7.5,1.4,11.1v.1c.3,1.8.6,3.6,1,5.4.4,1.8.7,3.6,1.1,5.4v.2c.3,1.2.5,2.4.8,3.5h0c.5,2.4,1.2,4.7,1.9,7,0,.1,0,.2.1.2.4,1.2.6,2.3,1,3.4h0c.7,2.3,1.4,4.5,2.3,6.8,0,.1.1.2.1.3.4,1.1.8,2.2,1.3,3.3h0c26.3,67.7,91.8,115.7,168.6,115.7s142.3-48,168.2-115.7h0c.5-1.1.8-2.2,1.3-3.3,0-.1.1-.2.1-.3.8-2.3,1.5-4.5,2.3-6.8h0c.4-1.2.7-2.3,1-3.4,0-.1,0-.2.1-.2.5-1.7,1-3.5,1.4-5.2.5-1.7.9-3.5,1.3-5.3v-.2c.4-1.8.8-3.6,1.1-5.4.4-1.8.6-3.6,1-5.4v-.1c.3-1.9.6-3.9.8-5.9.2-1.7.5-3.5.6-5.3h0c.4-3.8.6-7.6.7-11.4-12.3-18.2-27.5-34.9-40.2-52.2Z"/>
    <path shape-rendering="geometricPrecision"  class="cls-2" d="M342.78,163.6c-42.4-38.7-76.4-95.4-59.1-153.3-1.1-.4-2.2-.7-3.3-1.1-.2-.1-.3-.1-.5-.2-1.1-.4-2.2-.7-3.3-1-.1,0-.3-.1-.4-.1-2.3-.7-4.5-1.4-6.8-1.9-.2,0-.3-.1-.5-.1-1.1-.3-2.2-.5-3.3-.8-.2,0-.3-.1-.5-.1-1.2-.3-2.3-.5-3.4-.8h-.1c-1.2-.3-2.3-.5-3.4-.7-.1,0-.3-.1-.4-.1-1.1-.2-2.3-.5-3.3-.6-.2,0-.4-.1-.5-.1-1.1-.2-2.3-.4-3.3-.5-.1,0-.2,0-.4-.1-1.1-.2-2.2-.4-3.3-.5-.1,0-.3,0-.4-.1-1.1-.2-2.3-.3-3.3-.4-.2,0-.5-.1-.6-.1-1.1-.1-2.3-.3-3.3-.4h-.5c-1.1-.1-2.3-.2-3.3-.3h-.3c-1.2-.1-2.3-.1-3.4-.2h-.6c-1.1-.1-2.3-.1-3.4-.1h-8.2c-1.2,0-2.3.1-3.4.1h-.6c-1.2.1-2.4.1-3.4.2h-.3c-1.1.1-2.3.2-3.3.3h-.5c-1.1.1-2.3.2-3.3.4-.2,0-.5,0-.6.1-1.2.1-2.3.3-3.4.4-.1,0-.3,0-.4.1-1.1.2-2.3.3-3.3.5-.1,0-.2,0-.4.1-1.2.2-2.3.4-3.3.5-.2,0-.4.1-.5.1-1.1.2-2.3.4-3.3.6-.1,0-.3.1-.4.1-1.2.2-2.3.5-3.4.7h-.1c-1.2.3-2.3.5-3.4.8-.2,0-.3.1-.5.1-1.1.3-2.2.5-3.3.8-.2,0-.3.1-.5.1-2.3.6-4.5,1.3-6.8,1.9-.1,0-.3.1-.4.1-1.1.4-2.2.7-3.3,1-.2,0-.3.1-.5.2-1.1.4-2.2.7-3.3,1.1,17.4,58-16.6,114.6-59.1,153.3-32.2,29.4-49.6,52.8-49.1,80.7.5,1.4,1.1,2.8,1.7,4.3v.1c.5,1.4,1.2,2.7,1.7,4.1,0,0,0,.1.1.1.6,1.4,1.2,2.7,1.8,4.1,0,0,0,.1.1.1.6,1.4,1.3,2.7,2,4h0c.5,1,1,2,1.5,2.9.2.3.3.5.5.8.4.7.7,1.4,1.2,2.1.2.3.4.6.5.9.4.6.7,1.4,1.1,2,.2.3.4.6.5.9.4.6.7,1.3,1.2,1.9.2.3.4.5.5.9.4.6.8,1.4,1.3,2,.2.3.4.5.5.8.5.7.9,1.4,1.4,2.1.2.2.3.5.5.6.5.8,1,1.5,1.5,2.3.1.1.2.3.3.4,3.2,4.6,6.5,9.1,10.1,13.4h0c.7.8,1.4,1.7,2.2,2.5l.1.1c.7.8,1.4,1.6,2.1,2.4l.1.1c.7.8,1.4,1.6,2.2,2.4h0c32.8,35.3,79.7,57.3,131.7,57.3s98.9-22.1,131.7-57.3v-.1c.7-.8,1.4-1.6,2.2-2.4l.1-.1c.7-.8,1.4-1.6,2.1-2.4l.1-.1c.7-.8,1.4-1.6,2.1-2.5h0c3.6-4.3,7-8.8,10.1-13.4.1-.1.2-.3.3-.4.5-.7,1-1.5,1.5-2.3.2-.2.3-.5.5-.6.5-.7.9-1.4,1.4-2.1.2-.3.4-.5.5-.8.5-.6.8-1.4,1.3-2,.2-.3.4-.5.5-.9.4-.6.8-1.3,1.2-2,.2-.3.4-.6.5-.9.4-.6.7-1.3,1.1-2,.2-.3.4-.6.5-.9.4-.7.7-1.4,1.2-2.1.2-.3.3-.5.5-.8.5-1,1-1.9,1.5-2.9h0c.6-1.4,1.4-2.7,2-4.1v-.1c.6-1.4,1.3-2.7,1.9-4.1,0,0,0-.1.1-.1.6-1.4,1.2-2.7,1.7-4.2v-.1c.5-1.4,1.2-2.8,1.7-4.3.1-27.4-17.3-51-49.5-80.3Z"/>
    <path shape-rendering="geometricPrecision"  class="cls-4" d="M352.78,304.6c-16.7-16.7-36.3-29.9-58-39.1-22.5-9.5-46.4-14.4-71-14.4-20.9,0-41.4,3.5-61,10.4-18.9,6.7-36.5,16.4-52.2,28.9-5.7,4.5-11.1,9.4-16.3,14.6,1.8,1.9,3.7,3.8,5.6,5.6,1.4,1.4,3,2.8,4.5,4.2h0c31.8,28.1,73.6,45.2,119.4,45.2,26.8,0,52.2-5.9,75-16.3,16.2-7.4,31.1-17.2,44.3-28.9,1.5-1.4,3-2.7,4.5-4.2,1.9-1.8,3.8-3.7,5.6-5.6-.1,0-.2-.2-.4-.4Z"/>
    <path shape-rendering="geometricPrecision"  class="cls-1" d="M223.78,265.3c-39.4,0-75.7,13.6-104.4,36.3-5.2,4.2-10.1,8.6-14.8,13.2h0c31.7,28.1,73.5,45.2,119.3,45.2,26.8,0,52.2-5.9,75-16.3,16.2-7.4,31.1-17.2,44.3-28.9-30.6-30.6-72.8-49.5-119.4-49.5Z"/>
    <path shape-rendering="geometricPrecision"  class="cls-11" d="M298.78,343.7c-24-35.4-64.5-58.6-110.4-58.6-31.2,0-59.9,10.8-82.6,28.7-.5.4-.8.7-1.3,1,31.7,28.1,73.5,45.2,119.3,45.2,26.8,0,52.2-5.9,75-16.3Z"/>
    <path shape-rendering="geometricPrecision"  class="cls-3" d="M246.88,84.4l-3.4-1.1c-8.1-2.6-14.6-9-17.1-17.1l-1.1-3.4c-.2-.6-.8-1.1-1.4-1.1s-1.3.5-1.4,1.1l-1.1,3.4c-2.6,8.1-9,14.6-17.1,17.1l-3.4,1.1c-.6.2-1.1.8-1.1,1.4s.5,1.3,1.1,1.4l3.4,1.1c3.3,1,6.2,2.7,9,4.9,3.9,3.3,6.7,7.4,8.2,12.2l1.1,3.4c.2.6.8,1.1,1.4,1.1h0c.6,0,1.3-.5,1.4-1.1l1.1-3.4c1.5-4.8,4.4-9,8.3-12.3,2.6-2.2,5.6-3.8,8.9-4.8l3.4-1.1c.6-.2,1.1-.8,1.1-1.4-.2-.7-.7-1.2-1.3-1.4Z"/>
    <path shape-rendering="geometricPrecision"  class="cls-3" d="M241.18,170.1l-2.6-.8c-6.1-1.9-10.9-6.7-12.8-12.8l-.8-2.6c-.2-.5-.5-.8-1.1-.8-.5,0-.9.4-1.1.8l-.8,2.6c-1.9,6.1-6.7,10.9-12.8,12.8l-2.6.8c-.5.2-.8.5-.8,1.1s.4.9.8,1.1l2.6.8c2.4.8,4.7,2,6.7,3.7,2.9,2.4,5,5.6,6.2,9.1l.8,2.6c.2.5.5.8,1.1.8h0c.5,0,.9-.4,1.1-.8l.8-2.6c1.2-3.6,3.3-6.8,6.2-9.2,2-1.6,4.2-2.9,6.6-3.6l2.6-.8c.5-.2.8-.5.8-1.1-.2-.6-.5-1.1-.9-1.1Z"/>
    <g>
      <path shape-rendering="geometricPrecision"  class="cls-3" d="M138.78,218.5l-1.9-.6c-4.4-1.4-8-5-9.4-9.4l-.6-1.9c-.1-.4-.5-.5-.8-.5-.4,0-.7.3-.8.5l-.6,1.9c-1.4,4.4-5,8-9.4,9.4l-1.9.6c-.4.1-.5.5-.5.8,0,.4.3.7.5.8l1.9.6c1.8.5,3.4,1.4,4.9,2.7,2.1,1.8,3.7,4.1,4.5,6.7l.6,1.9c.1.4.5.5.8.5h0c.4,0,.7-.3.8-.5l.6-1.9c.8-2.6,2.4-5,4.5-6.8,1.4-1.2,3.1-2.1,4.9-2.6l1.9-.6c.4-.1.5-.5.5-.8,0-.4-.3-.7-.5-.8Z"/>
      <path shape-rendering="geometricPrecision"  class="cls-3" d="M334.18,218.5l-1.9-.6c-4.4-1.4-8-5-9.4-9.4l-.6-1.9c-.1-.4-.5-.5-.8-.5-.4,0-.7.3-.8.5l-.6,1.9c-1.4,4.4-5,8-9.4,9.4l-1.9.6c-.4.1-.5.5-.5.8,0,.4.3.7.5.8l1.9.6c1.8.5,3.4,1.4,4.9,2.7,2.1,1.8,3.7,4.1,4.5,6.7l.6,1.9c.1.4.5.5.8.5h0c.4,0,.7-.3.8-.5l.6-1.9c.8-2.6,2.4-5,4.5-6.8,1.4-1.2,3.1-2.1,4.9-2.6l1.9-.6c.4-.1.5-.5.5-.8.2-.4-.1-.7-.5-.8Z"/>
    </g>
    <g>
      <path shape-rendering="geometricPrecision"  class="cls-3" d="M176.68,146.1l-1.2-.4c-2.8-.9-5.1-3.2-6-6l-.4-1.2c-.1-.2-.3-.4-.5-.4s-.5.2-.5.4l-.4,1.2c-.9,2.8-3.2,5.1-6,6l-1.2.4c-.2.1-.4.3-.4.5s.2.5.4.5l1.2.4c1.2.4,2.2.9,3.2,1.7,1.4,1.1,2.4,2.6,2.9,4.3l.4,1.2c.1.2.3.4.5.4h0c.3,0,.5-.2.5-.4l.4-1.2c.5-1.7,1.5-3.2,2.9-4.3.9-.7,2-1.4,3.1-1.7l1.2-.4c.2-.1.4-.3.4-.5-.2-.2-.3-.4-.5-.5Z"/>
      <path shape-rendering="geometricPrecision"  class="cls-3" d="M287.08,146.1l-1.2-.4c-2.8-.9-5.1-3.2-6-6l-.4-1.2c-.1-.2-.3-.4-.5-.4s-.5.2-.5.4l-.4,1.2c-.9,2.8-3.2,5.1-6,6l-1.2.4c-.2.1-.4.3-.4.5s.2.5.4.5l1.2.4c1.2.4,2.2.9,3.2,1.7,1.4,1.1,2.4,2.6,2.9,4.3l.4,1.2c.1.2.3.4.5.4h0c.3,0,.5-.2.5-.4l.4-1.2c.5-1.7,1.5-3.2,2.9-4.3.9-.7,2-1.4,3.1-1.7l1.2-.4c.2-.1.4-.3.4-.5-.1-.2-.3-.4-.5-.5Z"/>
    </g>
    <g>
      <path shape-rendering="geometricPrecision"  class="cls-3" d="M196.98,218.8l-1.2-.4c-2.8-.9-5.1-3.2-6-6l-.4-1.2c-.1-.2-.3-.4-.5-.4-.3,0-.5.2-.5.4l-.4,1.2c-.9,2.8-3.2,5.1-6,6l-1.2.4c-.2.1-.4.3-.4.5,0,.3.2.5.4.5l1.2.4c1.2.4,2.2.9,3.2,1.7,1.4,1.1,2.4,2.6,2.9,4.3l.4,1.2c.1.2.3.4.5.4h0c.3,0,.5-.2.5-.4l.4-1.2c.5-1.7,1.5-3.2,2.9-4.3.9-.7,2-1.4,3.1-1.7l1.2-.4c.2-.1.4-.3.4-.5-.1-.2-.3-.4-.5-.5Z"/>
      <path shape-rendering="geometricPrecision"  class="cls-3" d="M266.78,218.8l-1.2-.4c-2.8-.9-5.1-3.2-6-6l-.4-1.2c-.1-.2-.3-.4-.5-.4s-.5.2-.5.4l-.4,1.2c-.9,2.8-3.2,5.1-6,6l-1.2.4c-.2.1-.4.3-.4.5,0,.3.2.5.4.5l1.2.4c1.2.4,2.2.9,3.2,1.7,1.4,1.1,2.4,2.6,2.9,4.3l.4,1.2c.1.2.3.4.5.4h0c.3,0,.5-.2.5-.4l.4-1.2c.5-1.7,1.5-3.2,2.9-4.3.9-.7,2-1.4,3.1-1.7l1.2-.4c.2-.1.4-.3.4-.5-.2-.2-.4-.4-.5-.5Z"/>
    </g>
  </g>
  <g>
    <text class="cls-6" transform="translate(0 299.84)"><tspan x="0" y="0">ME</tspan><tspan class="cls-18" x="161.05" y="0">S</tspan><tspan x="221.66" y="0">SIER</tspan></text>
    <g>
      <path shape-rendering="geometricPrecision"  class="cls-17" d="M62.68,287.61c-1.72,7.46-5.74,9.64-12.63,9.64s-10.91-2.18-12.63-9.64l-12.51-53.61c-.46-2.07-1.15-2.64-1.95-2.64-1.26,0-1.26,2.07-1.26,2.41l.34,62.56H6.89v-70.71c0-7.35,4.94-10.56,12.97-10.56,9.18,0,13.66,3.44,15.27,10.33l12.74,53.61c.46,1.84,1.38,2.98,2.18,2.98s1.72-1.15,2.18-2.98l12.74-53.61c1.61-6.89,6.08-10.33,15.27-10.33,8.04,0,12.97,3.21,12.97,10.56v70.71h-15.15l.46-62.56c0-2.3-.92-2.41-1.38-2.41-.8,0-1.49.69-1.95,2.64l-12.51,53.61Z"/>
      <path shape-rendering="geometricPrecision"  class="cls-17" d="M157.61,296.33h-38.91c-6.89,0-11.71-2.87-11.71-12.05v-56.25c0-9.18,4.82-12.05,11.71-12.05h38.46v12.05h-29.27c-4.59,0-5.74,1.15-5.74,5.74v15.5h33.86v12.05h-33.86v17.22c0,4.59,1.15,5.74,5.74,5.74h29.73v12.05Z"/>
      <path shape-rendering="geometricPrecision"  class="cls-17" d="M165.53,284.28h30.65c7.23,0,7.58-4.82,7.58-7.58,0-3.1-1.49-6.66-7.81-10.22l-17.79-9.99c-9.53-5.28-13.66-11.25-13.66-22.27s5.62-18.25,18.37-18.25h33.52v12.05h-29.5c-3.79,0-6.77,1.15-6.77,6.89,0,3.56,1.26,6.77,7,10.22l15.5,9.3c10.33,6.08,16.76,9.76,16.76,22.38,0,11.82-4.82,19.51-17.22,19.51h-36.62v-12.05Z"/>
      <path shape-rendering="geometricPrecision"  class="cls-17" d="M226.14,284.28h30.65c7.23,0,7.58-4.82,7.58-7.58,0-3.1-1.49-6.66-7.81-10.22l-17.79-9.99c-9.53-5.28-13.66-11.25-13.66-22.27s5.62-18.25,18.37-18.25h33.52v12.05h-29.5c-3.79,0-6.77,1.15-6.77,6.89,0,3.56,1.26,6.77,7,10.22l15.5,9.3c10.33,6.08,16.76,9.76,16.76,22.38,0,11.82-4.82,19.51-17.22,19.51h-36.62v-12.05Z"/>
      <rect class="cls-17" x="290.31" y="215.98" width="15.15" height="80.35"/>
      <path shape-rendering="geometricPrecision"  class="cls-17" d="M369.86,296.33h-38.91c-6.89,0-11.71-2.87-11.71-12.05v-56.25c0-9.18,4.82-12.05,11.71-12.05h38.46v12.05h-29.27c-4.59,0-5.74,1.15-5.74,5.74v15.5h33.86v12.05h-33.86v17.22c0,4.59,1.15,5.74,5.74,5.74h29.73v12.05Z"/>
      <path shape-rendering="geometricPrecision"  class="cls-17" d="M380.19,296.33v-68.3c0-9.18,4.82-12.05,11.71-12.05h29.04c14.92,0,20.09,9.3,20.09,25.37s-5.17,26.86-17.45,26.86h-1.15v.57l20.2,27.55h-18.37l-17.91-26.06c-1.49-2.18-2.64-4.48-2.64-6.77v-1.84c0-3.21,2.3-5.51,6.77-5.51h5.28c8.38,0,9.64-5.62,9.64-14.81s-1.72-13.32-11.36-13.32h-12.97c-4.59,0-5.74,1.15-5.74,5.74v62.56h-15.15Z"/>
    </g>
    <g>
      <path shape-rendering="geometricPrecision"  class="cls-23" d="M62.68,284.1c-1.72,7.46-5.74,9.64-12.63,9.64s-10.91-2.18-12.63-9.64l-12.51-53.61c-.46-2.07-1.15-2.64-1.95-2.64-1.26,0-1.26,2.07-1.26,2.41l.34,62.56H6.89v-70.71c0-7.35,4.94-10.56,12.97-10.56,9.18,0,13.66,3.44,15.27,10.33l12.74,53.61c.46,1.84,1.38,2.98,2.18,2.98s1.72-1.15,2.18-2.98l12.74-53.61c1.61-6.89,6.08-10.33,15.27-10.33,8.04,0,12.97,3.21,12.97,10.56v70.71h-15.15l.46-62.56c0-2.3-.92-2.41-1.38-2.41-.8,0-1.49.69-1.95,2.64l-12.51,53.61Z"/>
      <path shape-rendering="geometricPrecision"  class="cls-23" d="M157.61,292.82h-38.91c-6.89,0-11.71-2.87-11.71-12.05v-56.25c0-9.18,4.82-12.05,11.71-12.05h38.46v12.05h-29.27c-4.59,0-5.74,1.15-5.74,5.74v15.5h33.86v12.05h-33.86v17.22c0,4.59,1.15,5.74,5.74,5.74h29.73v12.05Z"/>
      <path shape-rendering="geometricPrecision"  class="cls-23" d="M165.53,280.77h30.65c7.23,0,7.58-4.82,7.58-7.58,0-3.1-1.49-6.66-7.81-10.22l-17.79-9.99c-9.53-5.28-13.66-11.25-13.66-22.27s5.62-18.25,18.37-18.25h33.52v12.05h-29.5c-3.79,0-6.77,1.15-6.77,6.89,0,3.56,1.26,6.77,7,10.22l15.5,9.3c10.33,6.08,16.76,9.76,16.76,22.38,0,11.82-4.82,19.51-17.22,19.51h-36.62v-12.05Z"/>
      <path shape-rendering="geometricPrecision"  class="cls-23" d="M226.14,280.77h30.65c7.23,0,7.58-4.82,7.58-7.58,0-3.1-1.49-6.66-7.81-10.22l-17.79-9.99c-9.53-5.28-13.66-11.25-13.66-22.27s5.62-18.25,18.37-18.25h33.52v12.05h-29.5c-3.79,0-6.77,1.15-6.77,6.89,0,3.56,1.26,6.77,7,10.22l15.5,9.3c10.33,6.08,16.76,9.76,16.76,22.38,0,11.82-4.82,19.51-17.22,19.51h-36.62v-12.05Z"/>
      <rect class="cls-23" x="290.31" y="212.47" width="15.15" height="80.35"/>
      <path shape-rendering="geometricPrecision"  class="cls-23" d="M369.86,292.82h-38.91c-6.89,0-11.71-2.87-11.71-12.05v-56.25c0-9.18,4.82-12.05,11.71-12.05h38.46v12.05h-29.27c-4.59,0-5.74,1.15-5.74,5.74v15.5h33.86v12.05h-33.86v17.22c0,4.59,1.15,5.74,5.74,5.74h29.73v12.05Z"/>
      <path shape-rendering="geometricPrecision"  class="cls-23" d="M380.19,292.82v-68.3c0-9.18,4.82-12.05,11.71-12.05h29.04c14.92,0,20.09,9.3,20.09,25.37s-5.17,26.86-17.45,26.86h-1.15v.57l20.2,27.55h-18.37l-17.91-26.06c-1.49-2.18-2.64-4.48-2.64-6.77v-1.84c0-3.21,2.3-5.51,6.77-5.51h5.28c8.38,0,9.64-5.62,9.64-14.81s-1.72-13.32-11.36-13.32h-12.97c-4.59,0-5.74,1.15-5.74,5.74v62.56h-15.15Z"/>
    </g>
    <g>
      <path shape-rendering="geometricPrecision"  class="cls-15" d="M62.68,280.59c-1.72,7.46-5.74,9.64-12.63,9.64s-10.91-2.18-12.63-9.64l-12.51-53.61c-.46-2.07-1.15-2.64-1.95-2.64-1.26,0-1.26,2.07-1.26,2.41l.34,62.56H6.89v-70.71c0-7.35,4.94-10.56,12.97-10.56,9.18,0,13.66,3.44,15.27,10.33l12.74,53.61c.46,1.84,1.38,2.98,2.18,2.98s1.72-1.15,2.18-2.98l12.74-53.61c1.61-6.89,6.08-10.33,15.27-10.33,8.04,0,12.97,3.21,12.97,10.56v70.71h-15.15l.46-62.56c0-2.3-.92-2.41-1.38-2.41-.8,0-1.49.69-1.95,2.64l-12.51,53.61Z"/>
      <path shape-rendering="geometricPrecision"  class="cls-15" d="M157.61,289.31h-38.91c-6.89,0-11.71-2.87-11.71-12.05v-56.25c0-9.18,4.82-12.05,11.71-12.05h38.46v12.05h-29.27c-4.59,0-5.74,1.15-5.74,5.74v15.5h33.86v12.05h-33.86v17.22c0,4.59,1.15,5.74,5.74,5.74h29.73v12.05Z"/>
      <path shape-rendering="geometricPrecision"  class="cls-15" d="M165.53,277.26h30.65c7.23,0,7.58-4.82,7.58-7.58,0-3.1-1.49-6.66-7.81-10.22l-17.79-9.99c-9.53-5.28-13.66-11.25-13.66-22.27s5.62-18.25,18.37-18.25h33.52v12.05h-29.5c-3.79,0-6.77,1.15-6.77,6.89,0,3.56,1.26,6.77,7,10.22l15.5,9.3c10.33,6.08,16.76,9.76,16.76,22.38,0,11.82-4.82,19.51-17.22,19.51h-36.62v-12.05Z"/>
      <path shape-rendering="geometricPrecision"  class="cls-15" d="M226.14,277.26h30.65c7.23,0,7.58-4.82,7.58-7.58,0-3.1-1.49-6.66-7.81-10.22l-17.79-9.99c-9.53-5.28-13.66-11.25-13.66-22.27s5.62-18.25,18.37-18.25h33.52v12.05h-29.5c-3.79,0-6.77,1.15-6.77,6.89,0,3.56,1.26,6.77,7,10.22l15.5,9.3c10.33,6.08,16.76,9.76,16.76,22.38,0,11.82-4.82,19.51-17.22,19.51h-36.62v-12.05Z"/>
      <rect class="cls-15" x="290.31" y="208.96" width="15.15" height="80.35"/>
      <path shape-rendering="geometricPrecision"  class="cls-15" d="M369.86,289.31h-38.91c-6.89,0-11.71-2.87-11.71-12.05v-56.25c0-9.18,4.82-12.05,11.71-12.05h38.46v12.05h-29.27c-4.59,0-5.74,1.15-5.74,5.74v15.5h33.86v12.05h-33.86v17.22c0,4.59,1.15,5.74,5.74,5.74h29.73v12.05Z"/>
      <path shape-rendering="geometricPrecision"  class="cls-15" d="M380.19,289.31v-68.3c0-9.18,4.82-12.05,11.71-12.05h29.04c14.92,0,20.09,9.3,20.09,25.37s-5.17,26.86-17.45,26.86h-1.15v.57l20.2,27.55h-18.37l-17.91-26.06c-1.49-2.18-2.64-4.48-2.64-6.77v-1.84c0-3.21,2.3-5.51,6.77-5.51h5.28c8.38,0,9.64-5.62,9.64-14.81s-1.72-13.32-11.36-13.32h-12.97c-4.59,0-5.74,1.15-5.74,5.74v62.56h-15.15Z"/>
    </g>
    <text class="cls-9" transform="translate(0 285.8)"><tspan x="0" y="0">ME</tspan><tspan class="cls-18" x="161.05" y="0">S</tspan><tspan x="221.66" y="0">SIER</tspan></text>
    <g>
      <path shape-rendering="geometricPrecision"  class="cls-21" d="M62.68,273.57c-1.72,7.46-5.74,9.64-12.63,9.64s-10.91-2.18-12.63-9.64l-12.51-53.61c-.46-2.07-1.15-2.64-1.95-2.64-1.26,0-1.26,2.07-1.26,2.41l.34,62.56H6.89v-70.71c0-7.35,4.94-10.56,12.97-10.56,9.18,0,13.66,3.44,15.27,10.33l12.74,53.61c.46,1.84,1.38,2.98,2.18,2.98s1.72-1.15,2.18-2.98l12.74-53.61c1.61-6.89,6.08-10.33,15.27-10.33,8.04,0,12.97,3.21,12.97,10.56v70.71h-15.15l.46-62.56c0-2.3-.92-2.41-1.38-2.41-.8,0-1.49.69-1.95,2.64l-12.51,53.61Z"/>
      <path shape-rendering="geometricPrecision"  class="cls-21" d="M157.61,282.29h-38.91c-6.89,0-11.71-2.87-11.71-12.05v-56.25c0-9.18,4.82-12.05,11.71-12.05h38.46v12.05h-29.27c-4.59,0-5.74,1.15-5.74,5.74v15.5h33.86v12.05h-33.86v17.22c0,4.59,1.15,5.74,5.74,5.74h29.73v12.05Z"/>
      <path shape-rendering="geometricPrecision"  class="cls-21" d="M165.53,270.24h30.65c7.23,0,7.58-4.82,7.58-7.58,0-3.1-1.49-6.66-7.81-10.22l-17.79-9.99c-9.53-5.28-13.66-11.25-13.66-22.27s5.62-18.25,18.37-18.25h33.52v12.05h-29.5c-3.79,0-6.77,1.15-6.77,6.89,0,3.56,1.26,6.77,7,10.22l15.5,9.3c10.33,6.08,16.76,9.76,16.76,22.38,0,11.82-4.82,19.51-17.22,19.51h-36.62v-12.05Z"/>
      <path shape-rendering="geometricPrecision"  class="cls-21" d="M226.14,270.24h30.65c7.23,0,7.58-4.82,7.58-7.58,0-3.1-1.49-6.66-7.81-10.22l-17.79-9.99c-9.53-5.28-13.66-11.25-13.66-22.27s5.62-18.25,18.37-18.25h33.52v12.05h-29.5c-3.79,0-6.77,1.15-6.77,6.89,0,3.56,1.26,6.77,7,10.22l15.5,9.3c10.33,6.08,16.76,9.76,16.76,22.38,0,11.82-4.82,19.51-17.22,19.51h-36.62v-12.05Z"/>
      <rect class="cls-21" x="290.31" y="201.94" width="15.15" height="80.35"/>
      <path shape-rendering="geometricPrecision"  class="cls-21" d="M369.86,282.29h-38.91c-6.89,0-11.71-2.87-11.71-12.05v-56.25c0-9.18,4.82-12.05,11.71-12.05h38.46v12.05h-29.27c-4.59,0-5.74,1.15-5.74,5.74v15.5h33.86v12.05h-33.86v17.22c0,4.59,1.15,5.74,5.74,5.74h29.73v12.05Z"/>
      <path shape-rendering="geometricPrecision"  class="cls-21" d="M380.19,282.29v-68.3c0-9.18,4.82-12.05,11.71-12.05h29.04c14.92,0,20.09,9.3,20.09,25.37s-5.17,26.86-17.45,26.86h-1.15v.57l20.2,27.55h-18.37l-17.91-26.06c-1.49-2.18-2.64-4.48-2.64-6.77v-1.84c0-3.21,2.3-5.51,6.77-5.51h5.28c8.38,0,9.64-5.62,9.64-14.81s-1.72-13.32-11.36-13.32h-12.97c-4.59,0-5.74,1.15-5.74,5.74v62.56h-15.15Z"/>
    </g>
    <g>
      <path shape-rendering="geometricPrecision"  class="cls-16" d="M62.68,270.06c-1.72,7.46-5.74,9.64-12.63,9.64s-10.91-2.18-12.63-9.64l-12.51-53.61c-.46-2.07-1.15-2.64-1.95-2.64-1.26,0-1.26,2.07-1.26,2.41l.34,62.56H6.89v-70.71c0-7.35,4.94-10.56,12.97-10.56,9.18,0,13.66,3.44,15.27,10.33l12.74,53.61c.46,1.84,1.38,2.98,2.18,2.98s1.72-1.15,2.18-2.98l12.74-53.61c1.61-6.89,6.08-10.33,15.27-10.33,8.04,0,12.97,3.21,12.97,10.56v70.71h-15.15l.46-62.56c0-2.3-.92-2.41-1.38-2.41-.8,0-1.49.69-1.95,2.64l-12.51,53.61Z"/>
      <path shape-rendering="geometricPrecision"  class="cls-16" d="M157.61,278.78h-38.91c-6.89,0-11.71-2.87-11.71-12.05v-56.25c0-9.18,4.82-12.05,11.71-12.05h38.46v12.05h-29.27c-4.59,0-5.74,1.15-5.74,5.74v15.5h33.86v12.05h-33.86v17.22c0,4.59,1.15,5.74,5.74,5.74h29.73v12.05Z"/>
      <path shape-rendering="geometricPrecision"  class="cls-16" d="M165.53,266.73h30.65c7.23,0,7.58-4.82,7.58-7.58,0-3.1-1.49-6.66-7.81-10.22l-17.79-9.99c-9.53-5.28-13.66-11.25-13.66-22.27s5.62-18.25,18.37-18.25h33.52v12.05h-29.5c-3.79,0-6.77,1.15-6.77,6.89,0,3.56,1.26,6.77,7,10.22l15.5,9.3c10.33,6.08,16.76,9.76,16.76,22.38,0,11.82-4.82,19.51-17.22,19.51h-36.62v-12.05Z"/>
      <path shape-rendering="geometricPrecision"  class="cls-16" d="M226.14,266.73h30.65c7.23,0,7.58-4.82,7.58-7.58,0-3.1-1.49-6.66-7.81-10.22l-17.79-9.99c-9.53-5.28-13.66-11.25-13.66-22.27s5.62-18.25,18.37-18.25h33.52v12.05h-29.5c-3.79,0-6.77,1.15-6.77,6.89,0,3.56,1.26,6.77,7,10.22l15.5,9.3c10.33,6.08,16.76,9.76,16.76,22.38,0,11.82-4.82,19.51-17.22,19.51h-36.62v-12.05Z"/>
      <rect class="cls-16" x="290.31" y="198.43" width="15.15" height="80.35"/>
      <path shape-rendering="geometricPrecision"  class="cls-16" d="M369.86,278.78h-38.91c-6.89,0-11.71-2.87-11.71-12.05v-56.25c0-9.18,4.82-12.05,11.71-12.05h38.46v12.05h-29.27c-4.59,0-5.74,1.15-5.74,5.74v15.5h33.86v12.05h-33.86v17.22c0,4.59,1.15,5.74,5.74,5.74h29.73v12.05Z"/>
      <path shape-rendering="geometricPrecision"  class="cls-16" d="M380.19,278.78v-68.3c0-9.18,4.82-12.05,11.71-12.05h29.04c14.92,0,20.09,9.3,20.09,25.37s-5.17,26.86-17.45,26.86h-1.15v.57l20.2,27.55h-18.37l-17.91-26.06c-1.49-2.18-2.64-4.48-2.64-6.77v-1.84c0-3.21,2.3-5.51,6.77-5.51h5.28c8.38,0,9.64-5.62,9.64-14.81s-1.72-13.32-11.36-13.32h-12.97c-4.59,0-5.74,1.15-5.74,5.74v62.56h-15.15Z"/>
    </g>
    <g>
      <path shape-rendering="geometricPrecision"  class="cls-24" d="M62.68,266.55c-1.72,7.46-5.74,9.64-12.63,9.64s-10.91-2.18-12.63-9.64l-12.51-53.61c-.46-2.07-1.15-2.64-1.95-2.64-1.26,0-1.26,2.07-1.26,2.41l.34,62.56H6.89v-70.71c0-7.35,4.94-10.56,12.97-10.56,9.18,0,13.66,3.44,15.27,10.33l12.74,53.61c.46,1.84,1.38,2.98,2.18,2.98s1.72-1.15,2.18-2.98l12.74-53.61c1.61-6.89,6.08-10.33,15.27-10.33,8.04,0,12.97,3.21,12.97,10.56v70.71h-15.15l.46-62.56c0-2.3-.92-2.41-1.38-2.41-.8,0-1.49.69-1.95,2.64l-12.51,53.61Z"/>
      <path shape-rendering="geometricPrecision"  class="cls-24" d="M157.61,275.27h-38.91c-6.89,0-11.71-2.87-11.71-12.05v-56.25c0-9.18,4.82-12.05,11.71-12.05h38.46v12.05h-29.27c-4.59,0-5.74,1.15-5.74,5.74v15.5h33.86v12.05h-33.86v17.22c0,4.59,1.15,5.74,5.74,5.74h29.73v12.05Z"/>
      <path shape-rendering="geometricPrecision"  class="cls-24" d="M165.53,263.22h30.65c7.23,0,7.58-4.82,7.58-7.58,0-3.1-1.49-6.66-7.81-10.22l-17.79-9.99c-9.53-5.28-13.66-11.25-13.66-22.27s5.62-18.25,18.37-18.25h33.52v12.05h-29.5c-3.79,0-6.77,1.15-6.77,6.89,0,3.56,1.26,6.77,7,10.22l15.5,9.3c10.33,6.08,16.76,9.76,16.76,22.38,0,11.82-4.82,19.51-17.22,19.51h-36.62v-12.05Z"/>
      <path shape-rendering="geometricPrecision"  class="cls-24" d="M226.14,263.22h30.65c7.23,0,7.58-4.82,7.58-7.58,0-3.1-1.49-6.66-7.81-10.22l-17.79-9.99c-9.53-5.28-13.66-11.25-13.66-22.27s5.62-18.25,18.37-18.25h33.52v12.05h-29.5c-3.79,0-6.77,1.15-6.77,6.89,0,3.56,1.26,6.77,7,10.22l15.5,9.3c10.33,6.08,16.76,9.76,16.76,22.38,0,11.82-4.82,19.51-17.22,19.51h-36.62v-12.05Z"/>
      <rect class="cls-24" x="290.31" y="194.92" width="15.15" height="80.35"/>
      <path shape-rendering="geometricPrecision"  class="cls-24" d="M369.86,275.27h-38.91c-6.89,0-11.71-2.87-11.71-12.05v-56.25c0-9.18,4.82-12.05,11.71-12.05h38.46v12.05h-29.27c-4.59,0-5.74,1.15-5.74,5.74v15.5h33.86v12.05h-33.86v17.22c0,4.59,1.15,5.74,5.74,5.74h29.73v12.05Z"/>
      <path shape-rendering="geometricPrecision"  class="cls-24" d="M380.19,275.27v-68.3c0-9.18,4.82-12.05,11.71-12.05h29.04c14.92,0,20.09,9.3,20.09,25.37s-5.17,26.86-17.45,26.86h-1.15v.57l20.2,27.55h-18.37l-17.91-26.06c-1.49-2.18-2.64-4.48-2.64-6.77v-1.84c0-3.21,2.3-5.51,6.77-5.51h5.28c8.38,0,9.64-5.62,9.64-14.81s-1.72-13.32-11.36-13.32h-12.97c-4.59,0-5.74,1.15-5.74,5.74v62.56h-15.15Z"/>
    </g>
    <text class="cls-10" transform="translate(0 271.76)"><tspan x="0" y="0">ME</tspan><tspan class="cls-18" x="161.05" y="0">S</tspan><tspan x="221.66" y="0">SIER</tspan></text>
    <g>
      <path shape-rendering="geometricPrecision"  class="cls-19" d="M62.68,259.53c-1.72,7.46-5.74,9.64-12.63,9.64s-10.91-2.18-12.63-9.64l-12.51-53.61c-.46-2.07-1.15-2.64-1.95-2.64-1.26,0-1.26,2.07-1.26,2.41l.34,62.56H6.89v-70.71c0-7.35,4.94-10.56,12.97-10.56,9.18,0,13.66,3.44,15.27,10.33l12.74,53.61c.46,1.84,1.38,2.98,2.18,2.98s1.72-1.15,2.18-2.98l12.74-53.61c1.61-6.89,6.08-10.33,15.27-10.33,8.04,0,12.97,3.21,12.97,10.56v70.71h-15.15l.46-62.56c0-2.3-.92-2.41-1.38-2.41-.8,0-1.49.69-1.95,2.64l-12.51,53.61Z"/>
      <path shape-rendering="geometricPrecision"  class="cls-19" d="M157.61,268.25h-38.91c-6.89,0-11.71-2.87-11.71-12.05v-56.25c0-9.18,4.82-12.05,11.71-12.05h38.46v12.05h-29.27c-4.59,0-5.74,1.15-5.74,5.74v15.5h33.86v12.05h-33.86v17.22c0,4.59,1.15,5.74,5.74,5.74h29.73v12.05Z"/>
      <path shape-rendering="geometricPrecision"  class="cls-19" d="M165.53,256.2h30.65c7.23,0,7.58-4.82,7.58-7.58,0-3.1-1.49-6.66-7.81-10.22l-17.79-9.99c-9.53-5.28-13.66-11.25-13.66-22.27s5.62-18.25,18.37-18.25h33.52v12.05h-29.5c-3.79,0-6.77,1.15-6.77,6.89,0,3.56,1.26,6.77,7,10.22l15.5,9.3c10.33,6.08,16.76,9.76,16.76,22.38,0,11.82-4.82,19.51-17.22,19.51h-36.62v-12.05Z"/>
      <path shape-rendering="geometricPrecision"  class="cls-19" d="M226.14,256.2h30.65c7.23,0,7.58-4.82,7.58-7.58,0-3.1-1.49-6.66-7.81-10.22l-17.79-9.99c-9.53-5.28-13.66-11.25-13.66-22.27s5.62-18.25,18.37-18.25h33.52v12.05h-29.5c-3.79,0-6.77,1.15-6.77,6.89,0,3.56,1.26,6.77,7,10.22l15.5,9.3c10.33,6.08,16.76,9.76,16.76,22.38,0,11.82-4.82,19.51-17.22,19.51h-36.62v-12.05Z"/>
      <rect class="cls-19" x="290.31" y="187.9" width="15.15" height="80.35"/>
      <path shape-rendering="geometricPrecision"  class="cls-19" d="M369.86,268.25h-38.91c-6.89,0-11.71-2.87-11.71-12.05v-56.25c0-9.18,4.82-12.05,11.71-12.05h38.46v12.05h-29.27c-4.59,0-5.74,1.15-5.74,5.74v15.5h33.86v12.05h-33.86v17.22c0,4.59,1.15,5.74,5.74,5.74h29.73v12.05Z"/>
      <path shape-rendering="geometricPrecision"  class="cls-19" d="M380.19,268.25v-68.3c0-9.18,4.82-12.05,11.71-12.05h29.04c14.92,0,20.09,9.3,20.09,25.37s-5.17,26.86-17.45,26.86h-1.15v.57l20.2,27.55h-18.37l-17.91-26.06c-1.49-2.18-2.64-4.48-2.64-6.77v-1.84c0-3.21,2.3-5.51,6.77-5.51h5.28c8.38,0,9.64-5.62,9.64-14.81s-1.72-13.32-11.36-13.32h-12.97c-4.59,0-5.74,1.15-5.74,5.74v62.56h-15.15Z"/>
    </g>
    <g>
      <path shape-rendering="geometricPrecision"  class="cls-14" d="M62.68,256.02c-1.72,7.46-5.74,9.64-12.63,9.64s-10.91-2.18-12.63-9.64l-12.51-53.61c-.46-2.07-1.15-2.64-1.95-2.64-1.26,0-1.26,2.07-1.26,2.41l.34,62.56H6.89v-70.71c0-7.35,4.94-10.56,12.97-10.56,9.18,0,13.66,3.44,15.27,10.33l12.74,53.61c.46,1.84,1.38,2.98,2.18,2.98s1.72-1.15,2.18-2.98l12.74-53.61c1.61-6.89,6.08-10.33,15.27-10.33,8.04,0,12.97,3.21,12.97,10.56v70.71h-15.15l.46-62.56c0-2.3-.92-2.41-1.38-2.41-.8,0-1.49.69-1.95,2.64l-12.51,53.61Z"/>
      <path shape-rendering="geometricPrecision"  class="cls-14" d="M157.61,264.74h-38.91c-6.89,0-11.71-2.87-11.71-12.05v-56.25c0-9.18,4.82-12.05,11.71-12.05h38.46v12.05h-29.27c-4.59,0-5.74,1.15-5.74,5.74v15.5h33.86v12.05h-33.86v17.22c0,4.59,1.15,5.74,5.74,5.74h29.73v12.05Z"/>
      <path shape-rendering="geometricPrecision"  class="cls-14" d="M165.53,252.69h30.65c7.23,0,7.58-4.82,7.58-7.58,0-3.1-1.49-6.66-7.81-10.22l-17.79-9.99c-9.53-5.28-13.66-11.25-13.66-22.27s5.62-18.25,18.37-18.25h33.52v12.05h-29.5c-3.79,0-6.77,1.15-6.77,6.89,0,3.56,1.26,6.77,7,10.22l15.5,9.3c10.33,6.08,16.76,9.76,16.76,22.38,0,11.82-4.82,19.51-17.22,19.51h-36.62v-12.05Z"/>
      <path shape-rendering="geometricPrecision"  class="cls-14" d="M226.14,252.69h30.65c7.23,0,7.58-4.82,7.58-7.58,0-3.1-1.49-6.66-7.81-10.22l-17.79-9.99c-9.53-5.28-13.66-11.25-13.66-22.27s5.62-18.25,18.37-18.25h33.52v12.05h-29.5c-3.79,0-6.77,1.15-6.77,6.89,0,3.56,1.26,6.77,7,10.22l15.5,9.3c10.33,6.08,16.76,9.76,16.76,22.38,0,11.82-4.82,19.51-17.22,19.51h-36.62v-12.05Z"/>
      <rect class="cls-14" x="290.31" y="184.39" width="15.15" height="80.35"/>
      <path shape-rendering="geometricPrecision"  class="cls-14" d="M369.86,264.74h-38.91c-6.89,0-11.71-2.87-11.71-12.05v-56.25c0-9.18,4.82-12.05,11.71-12.05h38.46v12.05h-29.27c-4.59,0-5.74,1.15-5.74,5.74v15.5h33.86v12.05h-33.86v17.22c0,4.59,1.15,5.74,5.74,5.74h29.73v12.05Z"/>
      <path shape-rendering="geometricPrecision"  class="cls-14" d="M380.19,264.74v-68.3c0-9.18,4.82-12.05,11.71-12.05h29.04c14.92,0,20.09,9.3,20.09,25.37s-5.17,26.86-17.45,26.86h-1.15v.57l20.2,27.55h-18.37l-17.91-26.06c-1.49-2.18-2.64-4.48-2.64-6.77v-1.84c0-3.21,2.3-5.51,6.77-5.51h5.28c8.38,0,9.64-5.62,9.64-14.81s-1.72-13.32-11.36-13.32h-12.97c-4.59,0-5.74,1.15-5.74,5.74v62.56h-15.15Z"/>
    </g>
    <g>
      <path shape-rendering="geometricPrecision"  class="cls-5" d="M62.68,252.51c-1.72,7.46-5.74,9.64-12.63,9.64s-10.91-2.18-12.63-9.64l-12.51-53.61c-.46-2.07-1.15-2.64-1.95-2.64-1.26,0-1.26,2.07-1.26,2.41l.34,62.56H6.89v-70.71c0-7.35,4.94-10.56,12.97-10.56,9.18,0,13.66,3.44,15.27,10.33l12.74,53.61c.46,1.84,1.38,2.98,2.18,2.98s1.72-1.15,2.18-2.98l12.74-53.61c1.61-6.89,6.08-10.33,15.27-10.33,8.04,0,12.97,3.21,12.97,10.56v70.71h-15.15l.46-62.56c0-2.3-.92-2.41-1.38-2.41-.8,0-1.49.69-1.95,2.64l-12.51,53.61Z"/>
      <path shape-rendering="geometricPrecision"  class="cls-5" d="M157.61,261.24h-38.91c-6.89,0-11.71-2.87-11.71-12.05v-56.25c0-9.18,4.82-12.05,11.71-12.05h38.46v12.05h-29.27c-4.59,0-5.74,1.15-5.74,5.74v15.5h33.86v12.05h-33.86v17.22c0,4.59,1.15,5.74,5.74,5.74h29.73v12.05Z"/>
      <path shape-rendering="geometricPrecision"  class="cls-5" d="M165.53,249.18h30.65c7.23,0,7.58-4.82,7.58-7.58,0-3.1-1.49-6.66-7.81-10.22l-17.79-9.99c-9.53-5.28-13.66-11.25-13.66-22.27s5.62-18.25,18.37-18.25h33.52v12.05h-29.5c-3.79,0-6.77,1.15-6.77,6.89,0,3.56,1.26,6.77,7,10.22l15.5,9.3c10.33,6.08,16.76,9.76,16.76,22.38,0,11.82-4.82,19.51-17.22,19.51h-36.62v-12.05Z"/>
      <path shape-rendering="geometricPrecision"  class="cls-5" d="M226.14,249.18h30.65c7.23,0,7.58-4.82,7.58-7.58,0-3.1-1.49-6.66-7.81-10.22l-17.79-9.99c-9.53-5.28-13.66-11.25-13.66-22.27s5.62-18.25,18.37-18.25h33.52v12.05h-29.5c-3.79,0-6.77,1.15-6.77,6.89,0,3.56,1.26,6.77,7,10.22l15.5,9.3c10.33,6.08,16.76,9.76,16.76,22.38,0,11.82-4.82,19.51-17.22,19.51h-36.62v-12.05Z"/>
      <rect class="cls-5" x="290.31" y="180.88" width="15.15" height="80.35"/>
      <path shape-rendering="geometricPrecision"  class="cls-5" d="M369.86,261.24h-38.91c-6.89,0-11.71-2.87-11.71-12.05v-56.25c0-9.18,4.82-12.05,11.71-12.05h38.46v12.05h-29.27c-4.59,0-5.74,1.15-5.74,5.74v15.5h33.86v12.05h-33.86v17.22c0,4.59,1.15,5.74,5.74,5.74h29.73v12.05Z"/>
      <path shape-rendering="geometricPrecision"  class="cls-5" d="M380.19,261.24v-68.3c0-9.18,4.82-12.05,11.71-12.05h29.04c14.92,0,20.09,9.3,20.09,25.37s-5.17,26.86-17.45,26.86h-1.15v.57l20.2,27.55h-18.37l-17.91-26.06c-1.49-2.18-2.64-4.48-2.64-6.77v-1.84c0-3.21,2.3-5.51,6.77-5.51h5.28c8.38,0,9.64-5.62,9.64-14.81s-1.72-13.32-11.36-13.32h-12.97c-4.59,0-5.74,1.15-5.74,5.74v62.56h-15.15Z"/>
    </g>
    <text class="cls-7" transform="translate(0 257.73)"><tspan x="0" y="0">ME</tspan><tspan class="cls-18" x="161.05" y="0">S</tspan><tspan x="221.66" y="0">SIER</tspan></text>
    <g>
      <path shape-rendering="geometricPrecision"  class="cls-12" d="M62.68,244.99c-1.72,7.46-5.74,9.64-12.63,9.64s-10.91-2.18-12.63-9.64l-12.51-53.61c-.46-2.07-1.15-2.64-1.95-2.64-1.26,0-1.26,2.07-1.26,2.41l.34,62.56H6.89v-70.71c0-7.35,4.94-10.56,12.97-10.56,9.18,0,13.66,3.44,15.27,10.33l12.74,53.61c.46,1.84,1.38,2.98,2.18,2.98s1.72-1.15,2.18-2.98l12.74-53.61c1.61-6.89,6.08-10.33,15.27-10.33,8.04,0,12.97,3.21,12.97,10.56v70.71h-15.15l.46-62.56c0-2.3-.92-2.41-1.38-2.41-.8,0-1.49.69-1.95,2.64l-12.51,53.61Z"/>
      <path shape-rendering="geometricPrecision"  class="cls-12" d="M157.61,253.71h-38.91c-6.89,0-11.71-2.87-11.71-12.05v-56.25c0-9.18,4.82-12.05,11.71-12.05h38.46v12.05h-29.27c-4.59,0-5.74,1.15-5.74,5.74v15.5h33.86v12.05h-33.86v17.22c0,4.59,1.15,5.74,5.74,5.74h29.73v12.05Z"/>
      <path shape-rendering="geometricPrecision"  class="cls-12" d="M165.53,241.66h30.65c7.23,0,7.58-4.82,7.58-7.58,0-3.1-1.49-6.66-7.81-10.22l-17.79-9.99c-9.53-5.28-13.66-11.25-13.66-22.27s5.62-18.25,18.37-18.25h33.52v12.05h-29.5c-3.79,0-6.77,1.15-6.77,6.89,0,3.56,1.26,6.77,7,10.22l15.5,9.3c10.33,6.08,16.76,9.76,16.76,22.38,0,11.82-4.82,19.51-17.22,19.51h-36.62v-12.05Z"/>
      <path shape-rendering="geometricPrecision"  class="cls-12" d="M226.14,241.66h30.65c7.23,0,7.58-4.82,7.58-7.58,0-3.1-1.49-6.66-7.81-10.22l-17.79-9.99c-9.53-5.28-13.66-11.25-13.66-22.27s5.62-18.25,18.37-18.25h33.52v12.05h-29.5c-3.79,0-6.77,1.15-6.77,6.89,0,3.56,1.26,6.77,7,10.22l15.5,9.3c10.33,6.08,16.76,9.76,16.76,22.38,0,11.82-4.82,19.51-17.22,19.51h-36.62v-12.05Z"/>
      <rect class="cls-12" x="290.31" y="173.36" width="15.15" height="80.35"/>
      <path shape-rendering="geometricPrecision"  class="cls-12" d="M369.86,253.71h-38.91c-6.89,0-11.71-2.87-11.71-12.05v-56.25c0-9.18,4.82-12.05,11.71-12.05h38.46v12.05h-29.27c-4.59,0-5.74,1.15-5.74,5.74v15.5h33.86v12.05h-33.86v17.22c0,4.59,1.15,5.74,5.74,5.74h29.73v12.05Z"/>
      <path shape-rendering="geometricPrecision"  class="cls-12" d="M380.19,253.71v-68.3c0-9.18,4.82-12.05,11.71-12.05h29.04c14.92,0,20.09,9.3,20.09,25.37s-5.17,26.86-17.45,26.86h-1.15v.57l20.2,27.55h-18.37l-17.91-26.06c-1.49-2.18-2.64-4.48-2.64-6.77v-1.84c0-3.21,2.3-5.51,6.77-5.51h5.28c8.38,0,9.64-5.62,9.64-14.81s-1.72-13.32-11.36-13.32h-12.97c-4.59,0-5.74,1.15-5.74,5.74v62.56h-15.15Z"/>
    </g>
    <g>
      <path shape-rendering="geometricPrecision"  class="cls-25" d="M62.68,240.98c-1.72,7.46-5.74,9.64-12.63,9.64s-10.91-2.18-12.63-9.64l-12.51-53.61c-.46-2.07-1.15-2.64-1.95-2.64-1.26,0-1.26,2.07-1.26,2.41l.34,62.56H6.89v-70.71c0-7.35,4.94-10.56,12.97-10.56,9.18,0,13.66,3.44,15.27,10.33l12.74,53.61c.46,1.84,1.38,2.98,2.18,2.98s1.72-1.15,2.18-2.98l12.74-53.61c1.61-6.89,6.08-10.33,15.27-10.33,8.04,0,12.97,3.21,12.97,10.56v70.71h-15.15l.46-62.56c0-2.3-.92-2.41-1.38-2.41-.8,0-1.49.69-1.95,2.64l-12.51,53.61Z"/>
      <path shape-rendering="geometricPrecision"  class="cls-25" d="M157.61,249.7h-38.91c-6.89,0-11.71-2.87-11.71-12.05v-56.25c0-9.18,4.82-12.05,11.71-12.05h38.46v12.05h-29.27c-4.59,0-5.74,1.15-5.74,5.74v15.5h33.86v12.05h-33.86v17.22c0,4.59,1.15,5.74,5.74,5.74h29.73v12.05Z"/>
      <path shape-rendering="geometricPrecision"  class="cls-25" d="M165.53,237.65h30.65c7.23,0,7.58-4.82,7.58-7.58,0-3.1-1.49-6.66-7.81-10.22l-17.79-9.99c-9.53-5.28-13.66-11.25-13.66-22.27s5.62-18.25,18.37-18.25h33.52v12.05h-29.5c-3.79,0-6.77,1.15-6.77,6.89,0,3.56,1.26,6.77,7,10.22l15.5,9.3c10.33,6.08,16.76,9.76,16.76,22.38,0,11.82-4.82,19.51-17.22,19.51h-36.62v-12.05Z"/>
      <path shape-rendering="geometricPrecision"  class="cls-25" d="M226.14,237.65h30.65c7.23,0,7.58-4.82,7.58-7.58,0-3.1-1.49-6.66-7.81-10.22l-17.79-9.99c-9.53-5.28-13.66-11.25-13.66-22.27s5.62-18.25,18.37-18.25h33.52v12.05h-29.5c-3.79,0-6.77,1.15-6.77,6.89,0,3.56,1.26,6.77,7,10.22l15.5,9.3c10.33,6.08,16.76,9.76,16.76,22.38,0,11.82-4.82,19.51-17.22,19.51h-36.62v-12.05Z"/>
      <rect class="cls-25" x="290.31" y="169.35" width="15.15" height="80.35"/>
      <path shape-rendering="geometricPrecision"  class="cls-25" d="M369.86,249.7h-38.91c-6.89,0-11.71-2.87-11.71-12.05v-56.25c0-9.18,4.82-12.05,11.71-12.05h38.46v12.05h-29.27c-4.59,0-5.74,1.15-5.74,5.74v15.5h33.86v12.05h-33.86v17.22c0,4.59,1.15,5.74,5.74,5.74h29.73v12.05Z"/>
      <path shape-rendering="geometricPrecision"  class="cls-25" d="M380.19,249.7v-68.3c0-9.18,4.82-12.05,11.71-12.05h29.04c14.92,0,20.09,9.3,20.09,25.37s-5.17,26.86-17.45,26.86h-1.15v.57l20.2,27.55h-18.37l-17.91-26.06c-1.49-2.18-2.64-4.48-2.64-6.77v-1.84c0-3.21,2.3-5.51,6.77-5.51h5.28c8.38,0,9.64-5.62,9.64-14.81s-1.72-13.32-11.36-13.32h-12.97c-4.59,0-5.74,1.15-5.74,5.74v62.56h-15.15Z"/>
    </g>
    <g>
      <path shape-rendering="geometricPrecision"  class="cls-20" d="M62.68,236.97c-1.72,7.46-5.74,9.64-12.63,9.64s-10.91-2.18-12.63-9.64l-12.51-53.61c-.46-2.07-1.15-2.64-1.95-2.64-1.26,0-1.26,2.07-1.26,2.41l.34,62.56H6.89v-70.71c0-7.35,4.94-10.56,12.97-10.56,9.18,0,13.66,3.44,15.27,10.33l12.74,53.61c.46,1.84,1.38,2.98,2.18,2.98s1.72-1.15,2.18-2.98l12.74-53.61c1.61-6.89,6.08-10.33,15.27-10.33,8.04,0,12.97,3.21,12.97,10.56v70.71h-15.15l.46-62.56c0-2.3-.92-2.41-1.38-2.41-.8,0-1.49.69-1.95,2.64l-12.51,53.61Z"/>
      <path shape-rendering="geometricPrecision"  class="cls-20" d="M157.61,245.69h-38.91c-6.89,0-11.71-2.87-11.71-12.05v-56.25c0-9.18,4.82-12.05,11.71-12.05h38.46v12.05h-29.27c-4.59,0-5.74,1.15-5.74,5.74v15.5h33.86v12.05h-33.86v17.22c0,4.59,1.15,5.74,5.74,5.74h29.73v12.05Z"/>
      <path shape-rendering="geometricPrecision"  class="cls-20" d="M165.53,233.64h30.65c7.23,0,7.58-4.82,7.58-7.58,0-3.1-1.49-6.66-7.81-10.22l-17.79-9.99c-9.53-5.28-13.66-11.25-13.66-22.27s5.62-18.25,18.37-18.25h33.52v12.05h-29.5c-3.79,0-6.77,1.15-6.77,6.89,0,3.56,1.26,6.77,7,10.22l15.5,9.3c10.33,6.08,16.76,9.76,16.76,22.38,0,11.82-4.82,19.51-17.22,19.51h-36.62v-12.05Z"/>
      <path shape-rendering="geometricPrecision"  class="cls-20" d="M226.14,233.64h30.65c7.23,0,7.58-4.82,7.58-7.58,0-3.1-1.49-6.66-7.81-10.22l-17.79-9.99c-9.53-5.28-13.66-11.25-13.66-22.27s5.62-18.25,18.37-18.25h33.52v12.05h-29.5c-3.79,0-6.77,1.15-6.77,6.89,0,3.56,1.26,6.77,7,10.22l15.5,9.3c10.33,6.08,16.76,9.76,16.76,22.38,0,11.82-4.82,19.51-17.22,19.51h-36.62v-12.05Z"/>
      <rect class="cls-20" x="290.31" y="165.34" width="15.15" height="80.35"/>
      <path shape-rendering="geometricPrecision"  class="cls-20" d="M369.86,245.69h-38.91c-6.89,0-11.71-2.87-11.71-12.05v-56.25c0-9.18,4.82-12.05,11.71-12.05h38.46v12.05h-29.27c-4.59,0-5.74,1.15-5.74,5.74v15.5h33.86v12.05h-33.86v17.22c0,4.59,1.15,5.74,5.74,5.74h29.73v12.05Z"/>
      <path shape-rendering="geometricPrecision"  class="cls-20" d="M380.19,245.69v-68.3c0-9.18,4.82-12.05,11.71-12.05h29.04c14.92,0,20.09,9.3,20.09,25.37s-5.17,26.86-17.45,26.86h-1.15v.57l20.2,27.55h-18.37l-17.91-26.06c-1.49-2.18-2.64-4.48-2.64-6.77v-1.84c0-3.21,2.3-5.51,6.77-5.51h5.28c8.38,0,9.64-5.62,9.64-14.81s-1.72-13.32-11.36-13.32h-12.97c-4.59,0-5.74,1.15-5.74,5.74v62.56h-15.15Z"/>
    </g>
    <text class="cls-8" transform="translate(0 241.68)"><tspan x="0" y="0">ME</tspan><tspan class="cls-18" x="161.05" y="0">S</tspan><tspan x="221.66" y="0">SIER</tspan></text>
  </g>
</svg>